<svg width="168" height="40" viewBox="0 0 168 40" fill="none" xmlns="http://www.w3.org/2000/svg">
<path fill-rule="evenodd" clip-rule="evenodd" d="M94.3082 15.7257C94.3082 14.3309 95.4106 13.2285 96.7829 13.2285C98.1552 13.2285 99.2576 14.3534 99.2576 15.7257C99.2576 17.098 98.1552 18.2229 96.7829 18.2229C95.4106 18.2229 94.3082 17.098 94.3082 15.7257ZM93.2283 20.2476H91.5411C89.2688 20.2476 88.099 21.71 87.4466 22.5648C87.1991 22.9023 86.8391 22.8573 86.8391 22.3849V20.4501C86.8391 20.3376 86.7491 20.2476 86.6367 20.2476H83.4421C83.3296 20.2476 83.2396 20.3376 83.2396 20.4501V39.1453C83.2396 39.2578 83.3296 39.3478 83.4421 39.3478H86.8391C86.9516 39.3478 87.0416 39.2578 87.0416 39.1453V28.0092C87.0416 25.1295 88.7514 23.7347 91.5411 23.7347H93.2283C93.3408 23.7347 93.4308 23.6447 93.4308 23.5322V20.4501C93.4533 20.3601 93.3633 20.2476 93.2283 20.2476ZM98.4702 20.2476H95.0956C94.9831 20.2476 94.8931 20.3376 94.8931 20.4501V39.1453C94.8931 39.2578 94.9831 39.3478 95.0956 39.3478H98.4702C98.5827 39.3478 98.6727 39.2578 98.6727 39.1453V20.4501C98.6727 20.3601 98.5827 20.2476 98.4702 20.2476ZM111.204 23.2623V20.4726C111.204 20.3601 111.114 20.2701 111.001 20.2701H107.199V18.3579C107.199 17.8404 107.334 17.458 107.582 17.1655C107.829 16.8731 108.189 16.7381 108.661 16.7381H111.024H111.204C111.316 16.7381 111.406 16.6481 111.406 16.5356V16.3556V13.6335V13.4535C111.406 13.341 111.316 13.251 111.204 13.251H111.001H110.416H108.391C105.062 13.251 103.375 14.7583 103.375 17.7505V20.2926H100.27C100.157 20.2926 100.067 20.3826 100.067 20.4951V23.2848C100.067 23.3972 100.157 23.4872 100.27 23.4872H103.375V38.1779V38.9878V39.1678C103.375 39.2803 103.465 39.3703 103.577 39.3703H103.78H106.817H106.997C107.109 39.3703 107.199 39.2803 107.199 39.1678V38.9878V23.4872H111.001C111.114 23.4872 111.204 23.3747 111.204 23.2623ZM72.4184 23.5547C68.9314 23.5547 67.559 26.6818 67.559 28.0992H77.2103C77.1878 26.6593 76.243 23.5547 72.4184 23.5547ZM63.5321 29.7864C63.5321 26.2994 65.1294 20.0452 72.4184 20.0452C79.7075 20.0452 81.0799 26.1869 81.2823 28.5266C81.3723 29.4265 81.2598 31.0463 81.2598 31.0463C81.2598 31.1588 81.1698 31.2488 81.0574 31.2488H67.559C67.559 35.1633 70.9336 36.0407 72.4184 36.0407C75.748 36.0407 76.6704 33.8359 76.8054 33.4985C76.8054 33.476 76.8054 33.476 76.8279 33.476C76.8729 33.4085 76.9404 33.341 77.0079 33.341H80.6974C80.7874 33.341 80.8549 33.4085 80.8324 33.521C80.6974 34.1734 79.3026 39.5502 72.4184 39.5502C67.4466 39.5277 63.5321 36.2206 63.5321 29.7864ZM153.813 28.0992C153.813 26.6818 155.186 23.5547 158.673 23.5547C162.497 23.5547 163.442 26.6818 163.442 28.0992H153.813ZM167.537 28.5041C167.334 26.1644 165.962 20.0227 158.673 20.0227C151.361 20.0227 149.786 26.2769 149.786 29.764C149.786 36.1981 153.723 39.5052 158.673 39.5052C165.557 39.5052 166.952 34.1509 167.087 33.476C167.109 33.341 167.042 33.296 166.952 33.296H163.262C163.172 33.296 163.105 33.341 163.082 33.431V33.4535V33.476C162.925 33.8359 162.025 36.0182 158.695 36.0182C157.188 36.0182 153.836 35.1408 153.836 31.2263H167.334C167.447 31.2263 167.537 31.1363 167.537 31.0238C167.514 31.0238 167.604 29.404 167.537 28.5041ZM125.489 30.1689C125.489 30.1464 125.489 30.1239 125.489 30.1239C125.489 30.0114 125.489 29.8989 125.489 29.7864C125.489 29.674 125.489 29.5615 125.489 29.449C125.489 29.404 125.489 29.359 125.489 29.2915V29.269V29.224C125.489 29.2015 125.489 29.1565 125.489 29.134C125.489 29.0665 125.489 29.0215 125.467 28.954V28.9316V28.8866C125.467 28.8641 125.467 28.8416 125.467 28.8191C125.467 28.7516 125.444 28.7066 125.444 28.6391C125.444 28.5941 125.444 28.5491 125.422 28.5041C125.422 28.4816 125.422 28.4366 125.399 28.4141V28.3691C125.399 28.3016 125.377 28.2341 125.377 28.1666V28.1441V28.1217C125.174 26.9968 124.747 26.0519 124.094 25.2645C123.397 24.4096 122.497 23.8697 121.417 23.6672C121.417 23.6672 121.417 23.6672 121.395 23.6672C121.327 23.6447 121.237 23.6447 121.17 23.6222C121.147 23.6222 121.125 23.6222 121.125 23.6222H121.08C121.012 23.6222 120.967 23.5997 120.9 23.5997C120.855 23.5997 120.81 23.5997 120.765 23.5997H120.742H120.697C120.675 23.5997 120.63 23.5997 120.607 23.5997C120.495 23.5997 120.405 23.5997 120.292 23.5997C120.18 23.5997 120.09 23.5997 119.977 23.5997C119.91 23.5997 119.865 23.5997 119.798 23.6222H119.775C119.753 23.6222 119.753 23.6222 119.73 23.6222C119.708 23.6222 119.685 23.6222 119.663 23.6222C118.335 23.7572 117.255 24.3196 116.445 25.3095C115.681 26.2319 115.231 27.4017 115.073 28.7966C115.073 28.8191 115.073 28.8191 115.073 28.8191C115.073 28.9091 115.051 28.9765 115.051 29.0665C115.051 29.089 115.051 29.134 115.051 29.1565C115.051 29.224 115.051 29.314 115.028 29.3815C115.028 29.404 115.028 29.404 115.028 29.4265C115.028 29.449 115.028 29.4715 115.028 29.494C115.028 29.6065 115.028 29.719 115.028 29.8314C115.028 29.9439 115.028 30.0564 115.028 30.1689V30.1914C115.096 31.8787 115.568 33.2735 116.445 34.3309C117.255 35.3208 118.358 35.8832 119.685 36.0182C119.775 36.0182 119.865 36.0407 119.955 36.0407C120.045 36.0407 120.157 36.0407 120.27 36.0407C120.382 36.0407 120.472 36.0407 120.585 36.0407C120.652 36.0407 120.697 36.0407 120.765 36.0182H120.787C120.81 36.0182 120.832 36.0182 120.855 36.0182H120.877C122.205 35.8832 123.307 35.3208 124.117 34.3534C124.927 33.3635 125.399 32.0812 125.512 30.5514V30.5289C125.512 30.5064 125.512 30.5064 125.512 30.4839C125.512 30.3939 125.512 30.3264 125.534 30.2364C125.489 30.2139 125.489 30.1914 125.489 30.1689ZM129.291 29.2915C129.291 29.449 129.291 29.629 129.291 29.7864C129.291 29.9439 129.291 30.1239 129.291 30.2814C129.291 30.3039 129.291 30.3264 129.291 30.3489C129.179 33.431 128.121 35.6582 126.592 37.143C125.084 38.6278 123.105 39.4377 120.675 39.5277C120.517 39.5277 120.382 39.5277 120.225 39.5277C120.067 39.5277 119.932 39.5277 119.798 39.5277C117.188 39.4377 115.096 38.5379 113.566 36.8506C113.521 36.8056 113.476 36.7381 113.431 36.6931L113.386 36.6481C113.363 36.6256 113.363 36.6256 113.341 36.6031L113.318 36.5806L113.296 36.5581C113.273 36.5356 113.273 36.5356 113.251 36.5131C113.251 36.5131 113.251 36.4906 113.228 36.4906C112.103 35.1408 111.339 33.2735 111.159 30.8663V30.8438C111.136 30.6863 111.136 30.5289 111.136 30.3489V30.2814C111.136 30.1239 111.136 29.9439 111.136 29.7864C111.136 29.629 111.136 29.449 111.136 29.2915C111.136 29.269 111.136 29.2465 111.136 29.2015C111.136 29.044 111.159 28.8866 111.159 28.7516C111.159 28.7291 111.159 28.6841 111.159 28.6616C111.181 28.5041 111.181 28.3466 111.204 28.2116V28.1891V28.1666C111.226 28.0092 111.249 27.8742 111.271 27.7167C111.271 27.7167 111.271 27.7167 111.271 27.6942C111.271 27.6942 111.271 27.6942 111.271 27.6717C111.294 27.5142 111.316 27.3793 111.339 27.2218L111.361 27.1543C111.384 27.0193 111.429 26.8618 111.451 26.7268V26.7043V26.6818C111.496 26.5468 111.519 26.3894 111.564 26.2544V26.2319C111.654 25.9394 111.744 25.6695 111.856 25.3995V25.377V25.3545C111.901 25.242 111.946 25.1295 112.013 25.017C112.036 24.972 112.036 24.9495 112.058 24.9046C112.103 24.8146 112.148 24.7246 112.193 24.6121C112.216 24.5446 112.261 24.4996 112.283 24.4321C112.283 24.4321 112.283 24.4096 112.306 24.4096C112.643 23.7797 113.048 23.2173 113.521 22.6773C115.051 20.99 117.143 20.1127 119.753 20.0227C119.887 20.0227 120.045 20.0227 120.18 20.0227C120.337 20.0227 120.472 20.0227 120.63 20.0227C123.06 20.1127 125.062 20.9226 126.569 22.4299C128.099 23.9147 129.134 26.1419 129.246 29.224C129.291 29.2465 129.291 29.269 129.291 29.2915ZM140.45 20.0452C138.088 20.0452 136.22 21.6875 135.546 22.6098C135.321 22.9248 134.871 22.8798 134.871 22.3399V20.4501C134.871 20.3376 134.781 20.2476 134.668 20.2476H131.474C131.361 20.2476 131.271 20.3376 131.271 20.4501V39.1453C131.271 39.2578 131.361 39.3478 131.474 39.3478H134.871C134.983 39.3478 135.073 39.2578 135.073 39.1453V28.0317C135.073 25.8719 136.355 23.5097 139.573 23.5097C143.262 23.5097 144.094 26.3669 144.094 27.8967V39.1453C144.094 39.2578 144.184 39.3478 144.297 39.3478H147.694C147.807 39.3478 147.897 39.2578 147.897 39.1453V28.3691C147.941 23.8022 145.467 20.0452 140.45 20.0452ZM59.8425 20.2476H63.712C63.802 20.2476 63.8695 20.3376 63.847 20.4276L57.9302 39.2128C57.9078 39.3028 57.8178 39.3478 57.7278 39.3478H51.586C51.4961 39.3478 51.4061 39.2803 51.3836 39.2128L45.4668 20.4276C45.4443 20.3376 45.5118 20.2476 45.6018 20.2476H49.4713C49.5613 20.2476 49.6288 20.2926 49.6513 20.3826L54.3082 35.6582C54.4207 36.0182 54.9156 36.0182 55.0281 35.6582L59.6625 20.3826C59.685 20.3151 59.7525 20.2476 59.8425 20.2476Z" fill="white"/>
<path fill-rule="evenodd" clip-rule="evenodd" d="M33.3858 17.3678C33.5208 17.5028 33.6333 17.6603 33.7683 17.7728C34.9156 18.7852 35.6355 20.2475 35.6355 21.8898C35.6355 24.9044 33.1833 27.3566 30.1687 27.3566C27.1541 27.3566 24.7019 24.9044 24.7019 21.8898C24.7019 20.2475 25.4218 18.7851 26.5467 17.7953C26.6817 17.6603 26.8166 17.5028 26.9516 17.3453C27.8965 16.333 29.0664 15.0506 29.0664 13.6783C29.0664 12.306 27.8965 11.0461 26.9516 10.0112C26.8166 9.85377 26.6817 9.71879 26.5467 9.56131C25.3993 8.54893 24.7019 7.08661 24.7019 5.46682C24.7019 2.45219 27.1541 0 30.1687 0C33.1833 0 35.6355 2.45219 35.6355 5.46682C35.6355 7.10911 34.9156 8.57143 33.7683 9.5838C33.6558 9.71879 33.5208 9.85377 33.3858 9.98875C32.4409 11.0236 31.2711 12.2835 31.2711 13.6783C31.2711 15.0731 32.4409 16.3555 33.3858 17.3678ZM10.9561 21.8898C10.9561 18.8751 8.50394 16.423 5.48931 16.423C2.47469 16.423 0.0224977 18.8751 0.0224977 21.8898C0.0224977 24.9044 2.47469 27.3566 5.48931 27.3566C8.50394 27.3791 10.9561 24.9269 10.9561 21.8898ZM0 5.48932C0 8.50394 2.45219 10.9561 5.46682 10.9561C8.48144 10.9561 10.9336 8.50394 10.9336 5.48932C10.9336 2.47469 8.48144 0.0224986 5.46682 0.0224986C2.45219 0.0224986 0 2.4522 0 5.48932ZM17.8178 40C14.8031 40 12.351 37.5478 12.351 34.5332C12.351 31.5186 14.8031 29.0664 17.8178 29.0664C20.8324 29.0664 23.2846 31.5186 23.2846 34.5332C23.2846 37.5478 20.8324 40 17.8178 40Z" fill="white"/>
</svg>
