<svg width="1189" height="841" viewBox="0 0 1189 841" fill="none" xmlns="http://www.w3.org/2000/svg">
<g clip-path="url(#clip0_58_9076)">
<path d="M960.453 765.5H1057.19C1059.15 765.5 1059.78 765.518 1060.21 765.648C1060.59 765.768 1060.81 765.92 1060.91 766.022C1060.91 766.039 1060.92 766.062 1060.93 766.096C1060.96 766.305 1060.97 766.606 1060.99 767.2C1061.15 773.392 1061.72 787.68 1063.7 800.962C1064.69 807.595 1066.04 814.049 1067.89 819.137C1068.81 821.68 1069.88 823.941 1071.14 825.726C1072.39 827.502 1073.89 828.916 1075.72 829.577C1081.06 831.507 1088.64 833.942 1095.8 836.168C1098.88 837.126 1101.14 837.828 1102.68 838.39C1103.45 838.669 1103.98 838.895 1104.33 839.078C1104.31 839.091 1104.29 839.107 1104.27 839.121C1104.31 839.099 1104.17 839.179 1103.64 839.26C1103.16 839.333 1102.49 839.387 1101.6 839.425C1099.8 839.499 1097.28 839.5 1093.84 839.5H928.377C924.211 839.5 921.127 839.5 918.961 839.426C917.877 839.389 917.063 839.334 916.479 839.258C915.819 839.172 915.678 839.084 915.742 839.124C915.728 839.115 915.716 839.105 915.703 839.097C915.72 839.088 915.737 839.078 915.755 839.069C916.199 838.845 916.873 838.566 917.822 838.219C919.713 837.527 922.493 836.632 926.261 835.42C931.707 833.668 937.423 831.676 942.659 829.557C946.986 827.806 949.927 823.538 951.959 818.384C954.009 813.185 955.255 806.78 955.997 800.27C957.484 787.236 956.987 773.449 956.638 767.263C956.602 766.634 956.587 766.31 956.604 766.084C956.607 766.058 956.61 766.037 956.612 766.021C956.709 765.923 956.911 765.777 957.287 765.657C957.462 765.601 957.733 765.552 958.259 765.526C958.787 765.5 959.469 765.5 960.453 765.5Z" stroke="#898A8D" stroke-width="3"/>
<line x1="952.5" y1="818.5" x2="1066.5" y2="818.5" stroke="#898A8D" stroke-width="3" stroke-linecap="round"/>
<mask id="path-3-outside-1_58_9076" maskUnits="userSpaceOnUse" x="638.014" y="256" width="743" height="512" fill="black">
<rect fill="white" x="638.014" y="256" width="743" height="512"/>
<path d="M1377.26 750.941C1377.26 758.196 1371.37 764.077 1364.12 764.077H654.15C646.895 764.077 641.014 758.196 641.014 750.941V272.136C641.014 264.881 646.895 259 654.15 259H1364.12C1371.37 259 1377.26 264.881 1377.26 272.136V750.941Z"/>
</mask>
<path d="M641.014 272.136L638.014 272.136V272.136H641.014ZM1364.12 259V256V256V259ZM1377.26 272.136H1380.26V272.136L1377.26 272.136ZM1377.26 750.941H1374.26C1374.26 756.539 1369.72 761.077 1364.12 761.077V764.077V767.077C1373.03 767.077 1380.26 759.853 1380.26 750.941H1377.26ZM1364.12 764.077V761.077H654.15V764.077V767.077H1364.12V764.077ZM654.15 764.077V761.077C648.552 761.077 644.014 756.539 644.014 750.941H641.014H638.014C638.014 759.853 645.239 767.077 654.15 767.077V764.077ZM641.014 750.941H644.014V272.136H641.014H638.014V750.941H641.014ZM641.014 272.136L644.014 272.136C644.014 266.538 648.552 262 654.15 262V259V256C645.239 256 638.014 263.224 638.014 272.136L641.014 272.136ZM654.15 259V262H1364.12V259V256H654.15V259ZM1364.12 259V262C1369.72 262 1374.26 266.538 1374.26 272.136L1377.26 272.136L1380.26 272.136C1380.26 263.224 1373.03 256 1364.12 256V259ZM1377.26 272.136H1374.26V750.941H1377.26H1380.26V272.136H1377.26Z" fill="#8E8E93" mask="url(#path-3-outside-1_58_9076)"/>
<circle cx="1009.13" cy="269.837" r="2.62719" fill="#898A8D"/>
<line x1="641" y1="696.486" x2="1377.27" y2="696.486" stroke="#898A8D" stroke-width="3"/>
<path d="M565.121 469.5C575.345 469.5 583.634 477.789 583.634 488.014V825.017H60.0259V488.014C60.0259 477.789 68.3149 469.5 78.5396 469.5H565.121Z" stroke="#8E8E93" stroke-width="3"/>
<circle cx="324.892" cy="491.889" r="2.72213" fill="#8E8E93"/>
<path d="M637.937 825.128C639.517 825.128 640.798 826.409 640.798 827.989V835.614H2.86084V827.989C2.86084 826.409 4.14204 825.128 5.72217 825.128H637.937Z" stroke="#898A8D" stroke-width="3"/>
<path d="M319.504 28.5239H559.471C569.954 28.524 578.451 37.0218 578.452 47.5044V399.091C578.452 409.574 569.954 418.072 559.471 418.072H319.504C309.022 418.072 300.524 409.574 300.524 399.091V47.5044C300.524 37.0218 309.022 28.5241 319.504 28.5239Z" stroke="#8E8E93" stroke-width="3"/>
<path d="M461.846 38.2884C460.526 38.2884 459.457 37.2186 459.457 35.8989C459.457 34.5793 460.526 33.5095 461.846 33.5095C463.166 33.5095 464.235 34.5793 464.235 35.8989C464.235 37.2186 463.166 38.2884 461.846 38.2884Z" fill="#8E8E93"/>
<path fill-rule="evenodd" clip-rule="evenodd" d="M445.803 35.8989C445.803 36.9358 446.643 37.7763 447.68 37.7763C448.717 37.7763 449.557 36.9358 449.557 35.8989C449.557 34.8621 448.717 34.0215 447.68 34.0215C446.643 34.0215 445.803 34.8621 445.803 35.8989ZM446.485 35.8989C446.485 36.5588 447.02 37.0937 447.68 37.0937C448.34 37.0937 448.875 36.5588 448.875 35.8989C448.875 35.2391 448.34 34.7042 447.68 34.7042C447.02 34.7042 446.485 35.2391 446.485 35.8989Z" fill="#8E8E93"/>
<path d="M435.904 35.8989C435.904 37.2186 436.973 38.2884 438.293 38.2884C439.613 38.2884 440.682 37.2186 440.682 35.8989C440.682 34.5793 439.613 33.5095 438.293 33.5095C436.973 33.5095 435.904 34.5793 435.904 35.8989Z" fill="#8E8E93"/>
<path d="M430.442 37.6057C429.499 37.6057 428.735 36.8415 428.735 35.8989C428.735 34.9563 429.499 34.1922 430.442 34.1922C431.385 34.1922 432.149 34.9563 432.149 35.8989C432.149 36.8415 431.385 37.6057 430.442 37.6057Z" fill="#8E8E93"/>
<path d="M453.654 35.8989C453.654 36.0875 453.806 36.2403 453.995 36.2403C454.183 36.2403 454.336 36.0875 454.336 35.8989C454.336 35.7104 454.183 35.5576 453.995 35.5576C453.806 35.5576 453.654 35.7104 453.654 35.8989Z" fill="#8E8E93"/>
<path d="M448.534 35.899C448.534 36.3703 448.152 36.7524 447.681 36.7524C447.209 36.7524 446.827 36.3703 446.827 35.899C446.827 35.4277 447.209 35.0457 447.681 35.0457C448.152 35.0457 448.534 35.4277 448.534 35.899Z" fill="#E5E5EA"/>
<path d="M241 197.49C241 196.662 240.329 195.991 239.5 195.991H238.748C237.92 195.991 237.249 196.662 237.249 197.49V232.732C237.249 233.561 237.92 234.232 238.748 234.232H239.5C240.329 234.232 241 233.561 241 232.732V197.49Z" fill="#8E8E93"/>
<path d="M240.25 197.49C240.25 197.076 239.914 196.741 239.5 196.741H237.248C236.834 196.741 236.498 197.076 236.498 197.49V232.733C236.498 233.147 236.834 233.482 237.248 233.482H239.5C239.914 233.482 240.25 233.147 240.25 232.733V197.49Z" fill="#8E8E93"/>
<path d="M77.0014 254.94C77.0014 255.769 77.6728 256.44 78.501 256.44H79.3064C80.1347 256.44 80.8061 255.769 80.8061 254.94L80.8061 232.51C80.8061 231.682 80.1347 231.011 79.3064 231.011H78.501C77.6728 231.011 77.0014 231.682 77.0014 232.51L77.0014 254.94Z" fill="#8E8E93"/>
<path d="M77.7152 254.977C77.7152 255.391 78.0509 255.727 78.465 255.727H80.7701C81.1842 255.727 81.5199 255.391 81.5199 254.977L81.5199 232.473C81.5199 232.059 81.1842 231.724 80.7701 231.724L78.465 231.724C78.0509 231.724 77.7152 232.059 77.7152 232.473L77.7152 254.977Z" fill="#8E8E93"/>
<path d="M77 219.53C77 220.358 77.6714 221.029 78.4997 221.029H79.305C80.1333 221.029 80.8047 220.358 80.8047 219.53L80.8047 197.575C80.8047 196.747 80.1333 196.075 79.305 196.075H78.4997C77.6714 196.075 77 196.747 77 197.575L77 219.53Z" fill="#8E8E93"/>
<path d="M77.7131 219.804C77.7131 220.218 78.0488 220.554 78.4629 220.554H80.768C81.1821 220.554 81.5178 220.218 81.5178 219.804L81.5178 197.3C81.5178 196.886 81.1821 196.55 80.768 196.55H78.4629C78.0488 196.55 77.7131 196.886 77.7131 197.3L77.7131 219.804Z" fill="#8E8E93"/>
<path d="M77.2382 185.545C77.2382 186.373 77.9096 187.044 78.7378 187.044H79.5432C80.3714 187.044 81.0429 186.373 81.0429 185.545L81.0429 177.612C81.0429 176.783 80.3714 176.112 79.5432 176.112L78.7378 176.112C77.9096 176.112 77.2382 176.783 77.2382 177.612L77.2382 185.545Z" fill="#8E8E93"/>
<path d="M77.952 185.582C77.952 185.996 78.2877 186.331 78.7018 186.331H81.0068C81.421 186.331 81.7567 185.996 81.7567 185.582L81.7567 177.575C81.7567 177.161 81.421 176.825 81.0068 176.825L78.7018 176.825C78.2877 176.825 77.952 177.161 77.952 177.575L77.952 185.582Z" fill="#8E8E93"/>
<path d="M106.887 99.5H211.112C225.814 99.5 237.733 111.418 237.733 126.12V391.557C237.733 406.258 225.814 418.177 211.112 418.177H106.887C92.1854 418.177 80.2673 406.258 80.2671 391.557V126.12C80.2672 111.418 92.1854 99.5001 106.887 99.5Z" stroke="#8E8E93" stroke-width="3"/>
<circle cx="139.914" cy="107.896" r="2.82758" fill="#8E8E93"/>
<mask id="path-16-outside-2_58_9076" maskUnits="userSpaceOnUse" x="658" y="23.9614" width="82" height="37" fill="black">
<rect fill="white" x="658" y="23.9614" width="82" height="37"/>
<path d="M677.654 29.3624C681.572 26.2927 689.554 27.0421 699.086 27.0421L699.085 27.129C708.542 27.1202 716.452 26.3987 720.346 29.4503C724.215 32.483 724.108 38.0168 724.84 42.2159C725.367 45.2392 727.16 49.5784 729.754 53.5294C731.027 55.3675 732.951 56.8841 734 58.0001L698.914 58.0001V57.7384L698.913 57.9132L664 57.9132C665.049 56.7971 666.973 55.2806 668.246 53.4425C670.84 49.4912 672.633 45.1514 673.16 42.128C673.892 37.9289 673.785 32.3951 677.654 29.3624Z"/>
</mask>
<path d="M677.654 29.3624L676.092 27.369L676.092 27.3692L677.654 29.3624ZM699.086 27.0421L701.618 27.0705L701.647 24.5096H699.086V27.0421ZM699.085 27.129L696.553 27.1005L696.524 29.6638L699.087 29.6614L699.085 27.129ZM720.346 29.4503L721.908 27.4571L721.908 27.457L720.346 29.4503ZM724.84 42.2159L722.345 42.6509L722.345 42.6509L724.84 42.2159ZM729.754 53.5294L727.637 54.9193L727.654 54.9455L727.672 54.9713L729.754 53.5294ZM734 58.0001V60.5325H739.855L735.845 56.2658L734 58.0001ZM698.914 58.0001L696.382 58.0001V60.5325H698.914V58.0001ZM698.914 57.7384H701.447L696.382 57.7242L698.914 57.7384ZM698.913 57.9132V60.4456H701.431L701.445 57.9273L698.913 57.9132ZM664 57.9132L662.155 56.179L658.145 60.4456H664V57.9132ZM668.246 53.4425L670.328 54.8844L670.346 54.8586L670.363 54.8324L668.246 53.4425ZM673.16 42.128L675.655 42.563L675.655 42.563L673.16 42.128ZM677.654 29.3624L679.216 31.3558C680.505 30.3458 682.765 29.774 686.4 29.5799C689.993 29.388 694.153 29.5745 699.086 29.5745V27.0421V24.5096C694.487 24.5096 689.889 24.3214 686.13 24.5223C682.411 24.7209 678.721 25.3093 676.092 27.369L677.654 29.3624ZM699.086 27.0421L696.554 27.0136L696.553 27.1005L699.085 27.129L701.617 27.1575L701.618 27.0705L699.086 27.0421ZM699.085 27.129L699.087 29.6614C703.976 29.6569 708.105 29.4756 711.663 29.6707C715.263 29.8681 717.503 30.4403 718.784 31.4436L720.346 29.4503L721.908 27.457C719.294 25.4086 715.633 24.8159 711.94 24.6134C708.205 24.4085 703.651 24.5923 699.083 24.5966L699.085 27.129ZM720.346 29.4503L718.784 31.4435C720.079 32.4584 720.822 33.9625 721.307 35.986C721.549 36.9964 721.711 38.0692 721.862 39.209C722.008 40.3039 722.15 41.5333 722.345 42.6509L724.84 42.2159L727.335 41.781C727.163 40.799 727.045 39.7619 726.883 38.5435C726.728 37.37 726.538 36.0825 726.232 34.8054C725.62 32.2541 724.483 29.4749 721.908 27.4571L720.346 29.4503ZM724.84 42.2159L722.345 42.6509C722.947 46.1037 724.91 50.7653 727.637 54.9193L729.754 53.5294L731.871 52.1395C729.41 48.3914 727.787 44.3748 727.335 41.7809L724.84 42.2159ZM729.754 53.5294L727.672 54.9713C728.45 56.0946 729.389 57.0689 730.197 57.853C731.106 58.7342 731.673 59.2219 732.155 59.7344L734 58.0001L735.845 56.2658C735.278 55.6622 734.359 54.8337 733.725 54.218C732.99 53.5052 732.331 52.8023 731.836 52.0875L729.754 53.5294ZM734 58.0001V55.4676L698.914 55.4676V58.0001V60.5325L734 60.5325V58.0001ZM698.914 58.0001H701.447V57.7384H698.914L696.382 57.7384V58.0001L698.914 58.0001ZM698.914 57.7384L696.382 57.7242L696.381 57.899L698.913 57.9132L701.445 57.9273L701.446 57.7525L698.914 57.7384ZM698.913 57.9132V55.3807L664 55.3807V57.9132V60.4456L698.913 60.4456V57.9132ZM664 57.9132L665.845 59.6474C666.327 59.135 666.894 58.6472 667.802 57.7661C668.61 56.9821 669.55 56.0077 670.328 54.8844L668.246 53.4425L666.164 52.0006C665.669 52.7154 665.01 53.4184 664.275 54.1311C663.641 54.7468 662.722 55.5753 662.155 56.179L664 57.9132ZM668.246 53.4425L670.363 54.8324C673.091 50.6781 675.053 46.0157 675.655 42.563L673.16 42.128L670.665 41.6931C670.213 44.2871 668.59 48.3044 666.129 52.0525L668.246 53.4425ZM673.16 42.128L675.655 42.563C675.85 41.4454 675.992 40.2161 676.138 39.1211C676.289 37.9813 676.451 36.9085 676.693 35.8981C677.178 33.8746 677.921 32.3705 679.216 31.3556L677.654 29.3624L676.092 27.3692C673.517 29.387 672.38 32.1662 671.768 34.7175C671.462 35.9946 671.272 37.2821 671.117 38.4556C670.955 39.674 670.837 40.7111 670.665 41.6931L673.16 42.128Z" fill="#898A8D" mask="url(#path-16-outside-2_58_9076)"/>
<mask id="path-18-outside-3_58_9076" maskUnits="userSpaceOnUse" x="658" y="194.039" width="82" height="37" fill="black">
<rect fill="white" x="658" y="194.039" width="82" height="37"/>
<path d="M720.346 225.638C716.428 228.707 708.446 227.958 698.914 227.958L698.915 227.872C689.459 227.881 681.548 228.602 677.654 225.551C673.785 222.518 673.892 216.984 673.16 212.785C672.633 209.762 670.84 205.422 668.246 201.471C666.973 199.632 665.049 198.116 664 197L699.086 197L699.086 197.263L699.087 197.088L734 197.088C732.951 198.204 731.027 199.72 729.754 201.558C727.16 205.51 725.367 209.849 724.84 212.872C724.108 217.071 724.215 222.605 720.346 225.638Z"/>
</mask>
<path d="M720.346 225.638L721.908 227.631L721.908 227.631L720.346 225.638ZM698.914 227.958L696.382 227.929L696.353 230.49L698.914 230.49L698.914 227.958ZM698.915 227.872L701.447 227.901L701.476 225.337L698.913 225.339L698.915 227.872ZM677.654 225.551L676.092 227.544L676.092 227.544L677.654 225.551ZM673.16 212.785L675.655 212.35L675.655 212.35L673.16 212.785ZM668.246 201.471L670.363 200.081L670.346 200.054L670.328 200.029L668.246 201.471ZM664 197L664 194.467L658.145 194.467L662.155 198.734L664 197ZM699.086 197L701.618 197L701.618 194.467L699.086 194.467L699.086 197ZM699.086 197.263L696.553 197.263L701.618 197.277L699.086 197.263ZM699.087 197.088L699.087 194.555L696.569 194.555L696.555 197.074L699.087 197.088ZM734 197.088L735.845 198.822L739.855 194.555L734 194.555L734 197.088ZM729.754 201.558L727.672 200.117L727.654 200.142L727.637 200.169L729.754 201.558ZM724.84 212.872L722.345 212.437L722.345 212.437L724.84 212.872ZM720.346 225.638L718.784 223.644C717.495 224.654 715.235 225.226 711.6 225.42C708.007 225.612 703.847 225.425 698.914 225.425L698.914 227.958L698.914 230.49C703.513 230.49 708.111 230.679 711.87 230.478C715.59 230.279 719.279 229.691 721.908 227.631L720.346 225.638ZM698.914 227.958L701.446 227.987L701.447 227.901L698.915 227.872L696.383 227.843L696.382 227.929L698.914 227.958ZM698.915 227.872L698.913 225.339C694.025 225.344 689.895 225.525 686.337 225.33C682.737 225.133 680.497 224.56 679.216 223.557L677.654 225.551L676.092 227.544C678.706 229.592 682.368 230.185 686.06 230.387C689.795 230.592 694.349 230.409 698.917 230.404L698.915 227.872ZM677.654 225.551L679.216 223.557C677.921 222.543 677.178 221.038 676.693 219.015C676.451 218.005 676.289 216.932 676.138 215.792C675.992 214.697 675.85 213.468 675.655 212.35L673.16 212.785L670.665 213.22C670.837 214.202 670.955 215.239 671.117 216.457C671.272 217.631 671.462 218.918 671.768 220.196C672.38 222.747 673.517 225.526 676.092 227.544L677.654 225.551ZM673.16 212.785L675.655 212.35C675.053 208.897 673.091 204.235 670.363 200.081L668.246 201.471L666.129 202.86C668.59 206.609 670.213 210.626 670.665 213.22L673.16 212.785ZM668.246 201.471L670.328 200.029C669.55 198.905 668.61 197.931 667.802 197.147C666.894 196.266 666.327 195.778 665.845 195.266L664 197L662.155 198.734C662.722 199.338 663.641 200.166 664.275 200.782C665.01 201.495 665.669 202.198 666.164 202.912L668.246 201.471ZM664 197L664 199.532L699.086 199.532L699.086 197L699.086 194.467L664 194.467L664 197ZM699.086 197L696.553 197L696.553 197.263L699.086 197.263L701.618 197.263L701.618 197L699.086 197ZM699.086 197.263L701.618 197.277L701.619 197.102L699.087 197.088L696.555 197.074L696.554 197.248L699.086 197.263ZM699.087 197.088L699.087 199.62L734 199.62L734 197.088L734 194.555L699.087 194.555L699.087 197.088ZM734 197.088L732.155 195.353C731.673 195.866 731.106 196.354 730.197 197.235C729.389 198.019 728.45 198.993 727.672 200.117L729.754 201.558L731.836 203C732.331 202.286 732.99 201.583 733.725 200.87C734.359 200.254 735.278 199.426 735.845 198.822L734 197.088ZM729.754 201.558L727.637 200.169C724.91 204.323 722.947 208.984 722.345 212.437L724.84 212.872L727.335 213.307C727.787 210.713 729.41 206.696 731.871 202.948L729.754 201.558ZM724.84 212.872L722.345 212.437C722.15 213.555 722.008 214.784 721.862 215.879C721.711 217.019 721.549 218.091 721.307 219.102C720.822 221.125 720.079 222.629 718.784 223.644L720.346 225.638L721.908 227.631C724.483 225.613 725.62 222.834 726.232 220.282C726.538 219.005 726.728 217.718 726.883 216.544C727.045 215.326 727.163 214.289 727.335 213.307L724.84 212.872Z" fill="#898A8D" mask="url(#path-18-outside-3_58_9076)"/>
<path d="M728.032 58.8682C744.665 58.8682 758.148 72.3499 758.148 88.9805V165.903C758.148 182.534 744.665 196.017 728.032 196.017H669.851C653.218 196.017 639.733 182.534 639.733 165.903V88.9805C639.734 72.3499 653.218 58.8682 669.851 58.8682L728.032 58.8682Z" stroke="#898A8D" stroke-width="2.53245"/>
<path d="M758.759 96.5991C762.118 97.1974 764.667 100.131 764.667 103.662V120.544C764.667 124.075 762.118 127.008 758.759 127.606V96.5991Z" stroke="#898A8D" stroke-width="2.53245"/>
<path d="M758.759 135.43C762.118 136.028 764.667 138.962 764.667 142.492V148.402C764.667 151.932 762.118 154.865 758.759 155.463V135.43Z" stroke="#898A8D" stroke-width="2.53245"/>
</g>
<defs>
<clipPath id="clip0_58_9076">
<rect width="1189" height="841" fill="white"/>
</clipPath>
</defs>
</svg>
