<svg width="999" height="822" viewBox="0 0 999 822" fill="none" xmlns="http://www.w3.org/2000/svg">
<path d="M992.872 420.327C995.523 420.327 997.672 422.477 997.672 425.128V815.873C997.672 818.523 995.523 820.673 992.872 820.673H459.563C456.913 820.673 454.763 818.523 454.763 815.873V425.128C454.763 422.478 456.913 420.327 459.563 420.327H992.872ZM456.108 444.985V815.873C456.109 817.78 457.656 819.327 459.563 819.328H992.872C994.78 819.328 996.327 817.78 996.327 815.873V444.985H456.108ZM459.563 421.673C457.655 421.674 456.108 423.22 456.108 425.128V443.639H996.327V425.128C996.327 423.22 994.78 421.673 992.872 421.673H459.563Z" fill="#9E9E9E"/>
<rect x="627.57" y="426.38" width="198.44" height="12.5528" rx="1.61393" stroke="#9E9E9E" stroke-width="1.34494"/>
<path d="M511.185 429.518L507.957 432.746L511.185 435.974" stroke="#9E9E9E" stroke-width="1.34494" stroke-linecap="round" stroke-linejoin="round"/>
<path d="M522.419 435.794L525.647 432.567L522.419 429.339" stroke="#9E9E9E" stroke-width="1.34494" stroke-linecap="round" stroke-linejoin="round"/>
<path d="M529.139 425.707C530.402 425.707 531.425 426.732 531.425 427.994V437.319C531.425 438.581 530.402 439.606 529.139 439.606H504.572C503.309 439.606 502.285 438.581 502.285 437.319V427.994C502.285 426.732 503.309 425.707 504.572 425.707H529.139ZM517.528 438.26H529.139C529.659 438.26 530.08 437.838 530.081 437.319V427.994C530.081 427.475 529.659 427.053 529.139 427.053H517.528V438.26ZM504.572 427.053C504.052 427.053 503.63 427.474 503.63 427.994V437.319C503.631 437.838 504.052 438.26 504.572 438.26H516.182V427.053H504.572Z" fill="#9E9E9E"/>
<circle cx="467.524" cy="433.088" r="3.24312" stroke="#9E9E9E" stroke-width="1.34494"/>
<circle cx="479.317" cy="433.088" r="3.24312" stroke="#9E9E9E" stroke-width="1.34494"/>
<circle cx="491.11" cy="433.088" r="3.24312" stroke="#9E9E9E" stroke-width="1.34494"/>
<path d="M244.228 202.112C243.997 201.998 243.77 201.878 243.547 201.753H243.348L247.109 205.428C247.626 206.183 248.07 206.991 248.435 207.839C249.204 209.622 249.587 211.603 249.763 213.53L250.568 222.341C250.72 224.008 250.878 225.741 252.244 226.896C253.032 227.563 254.027 227.925 255.01 228.195C256.061 228.484 257.143 228.672 258.221 228.827C260.568 229.165 262.925 229.37 265.287 229.573C267.54 229.765 269.813 229.804 272.073 229.828L273.716 229.811C275.994 229.787 278.275 229.622 280.544 229.428C282.801 229.235 285.07 229.018 287.298 228.601C289.218 228.242 291.511 227.782 292.67 226.036C293.196 225.244 293.402 224.264 293.487 223.33L293.75 220.461C293.901 218.802 294.052 217.145 294.204 215.486C294.227 215.233 294.246 214.978 294.266 214.722L294.27 214.67C294.314 214.091 294.358 213.51 294.441 212.938C294.764 210.71 295.237 208.507 296.353 206.525C296.563 206.153 296.788 205.79 297.028 205.438L300.797 201.753H300.477C299.189 202.467 297.786 202.982 296.351 203.28M244.228 202.112C246.218 203.1 248.412 203.55 250.624 203.586L293.376 203.586C294.377 203.57 295.369 203.484 296.351 203.28M244.228 202.112C242.199 201.106 240.45 199.685 239.052 197.905C237.693 196.175 236.753 194.099 236.306 191.948C236.102 190.967 236.017 189.976 236 188.975V134.463C236.038 132.253 236.485 130.061 237.475 128.072C238.484 126.046 239.904 124.299 241.686 122.901C243.418 121.543 245.497 120.605 247.649 120.158M296.351 203.28C298.503 202.833 300.584 201.896 302.314 200.538C304.095 199.139 305.517 197.394 306.525 195.367C307.515 193.377 307.962 191.186 308 188.975L308 186.209L308.146 186.209M247.649 120.158C246.393 120.419 245.161 120.847 244.009 121.429L247.109 118.399C247.627 117.644 248.07 116.837 248.435 115.989C249.204 114.207 249.587 112.225 249.763 110.299L250.568 101.485C250.72 99.8197 250.878 98.0871 252.244 96.932C253.032 96.265 254.027 95.9047 255.01 95.6333C256.06 95.3434 257.143 95.1548 258.221 95.0005C260.569 94.665 262.925 94.4574 265.287 94.2553C267.54 94.0623 269.814 94.0244 272.073 94.0005C272.44 94.0041 272.807 94.008 273.174 94.0119L273.716 94.0176C275.994 94.0415 278.275 94.2054 280.544 94.3997C282.801 94.593 285.07 94.8112 287.298 95.227C289.217 95.5852 291.512 96.0462 292.67 97.7915C293.196 98.5837 293.402 99.5635 293.487 100.498L293.827 104.22M247.649 120.158C248.631 119.954 249.623 119.87 250.625 119.852L293.376 119.852C295.589 119.891 297.781 120.338 299.773 121.326M299.773 121.326C299.96 121.419 300.145 121.516 300.327 121.616L297.028 118.391C296.787 118.039 296.563 117.676 296.353 117.303C295.239 115.32 294.764 113.12 294.441 110.89C294.358 110.318 294.314 109.737 294.27 109.158C294.249 108.885 294.228 108.613 294.204 108.342M299.773 121.326C301.801 122.333 303.549 123.753 304.948 125.533C306.308 127.262 307.247 129.34 307.694 131.49C307.898 132.472 307.982 133.462 308 134.463L308 138.781L308.146 138.781M294.204 108.342C294.111 107.323 294.018 106.304 293.925 105.285L293.827 104.22M294.204 108.342L293.827 104.22M308.146 138.781C306.841 140.528 306.208 142.644 306.043 144.801C306.004 145.319 305.987 145.836 305.979 146.356C306.011 148.556 306.312 150.763 307.367 152.727C307.594 153.15 307.859 153.548 308.146 153.933M308.146 138.781L310.096 138.781M308.146 138.781L309.687 138.781M308.146 153.933L308 153.933V162.399L308.146 162.398M308.146 153.933L310.096 153.933M308.146 153.933L309.687 153.933M308.146 162.398C307.676 163.381 307.558 164.542 307.428 165.61C307.292 166.719 307.227 167.837 307.176 168.952C307.094 170.734 307.09 172.52 307.063 174.304C307.098 176.593 307.096 178.884 307.264 181.167C307.33 182.055 307.407 182.939 307.537 183.82C307.644 184.541 307.767 185.297 308.045 185.979C308.076 186.055 308.109 186.13 308.143 186.204M308.146 162.398L308.367 162.394C308.682 162.395 308.969 162.594 309.078 162.89C309.196 163.209 309.125 163.639 309.125 163.967M308.146 186.209C308.145 186.207 308.144 186.205 308.143 186.204M308.146 186.209L308.143 186.204M308.143 186.204C308.527 186.198 308.892 186.148 309.065 185.743C309.192 185.442 309.125 185.027 309.125 184.714M309.687 153.933V138.781M309.687 153.933L310.096 153.933M309.687 138.781L310.096 138.781M310.096 138.781C311.107 138.786 311.926 139.616 311.937 140.621V152.093C311.926 153.098 311.107 153.928 310.096 153.933M309.125 184.714C309.125 182.134 309.125 179.555 309.125 176.976M309.125 184.714V176.976M309.125 176.976C309.125 173.702 309.125 170.428 309.125 167.155M309.125 176.976V167.155M309.125 167.155C309.125 166.092 309.125 165.029 309.125 163.967M309.125 167.155V163.967" stroke="#9E9E9E" stroke-width="1.5" stroke-miterlimit="10" stroke-linecap="round" stroke-linejoin="round"/>
<path d="M250.749 200.183C248.551 200.145 246.459 199.551 244.596 198.375C242.801 197.242 241.314 195.54 240.436 193.608C239.744 192.088 239.404 190.487 239.375 188.819" stroke="#9E9E9E" stroke-width="1.5" stroke-miterlimit="10" stroke-linecap="round" stroke-linejoin="round"/>
<path d="M239.375 134.587C239.412 132.391 240.008 130.301 241.185 128.44C242.319 126.645 244.022 125.162 245.956 124.283C247.477 123.592 249.081 123.251 250.75 123.223" stroke="#9E9E9E" stroke-width="1.5" stroke-miterlimit="10" stroke-linecap="round" stroke-linejoin="round"/>
<path d="M293.251 123.379C295.449 123.417 297.541 124.012 299.404 125.187C301.199 126.321 302.685 128.022 303.564 129.955C304.256 131.475 304.597 133.076 304.625 134.744" stroke="#9E9E9E" stroke-width="1.5" stroke-miterlimit="10" stroke-linecap="round" stroke-linejoin="round"/>
<path d="M304.625 188.975C304.588 191.171 303.993 193.263 302.816 195.123C301.68 196.917 299.978 198.401 298.044 199.279C296.522 199.971 294.895 200.155 293.226 200.183" stroke="#9E9E9E" stroke-width="1.5" stroke-miterlimit="10" stroke-linecap="round" stroke-linejoin="round"/>
<path d="M471.321 388C466.783 387.992 462.428 385.784 459.752 382.11C457.909 379.579 457.007 376.553 457.002 373.435C457 372.293 457.002 371.15 457.002 370.008C457.002 367.605 457.002 365.202 457.002 362.799C457.002 359.263 457.002 355.726 457.002 352.189C457.002 347.647 457.002 343.105 457.002 338.562C457.002 333.142 457.002 327.722 457.002 322.302C457.002 316.132 457.002 309.963 457.002 303.793C457.002 297.002 457.002 290.211 457.002 283.421C457.002 276.136 457.002 268.852 457.002 261.567C457.002 253.894 457.002 246.22 457.002 238.546C457.002 230.659 457.002 222.771 457.002 214.883C457.002 206.862 457.002 198.841 457.002 190.82C457.002 182.844 457.002 174.866 457.002 166.89C457.002 159.06 457.002 151.231 457.002 143.402C457.002 135.848 457.002 128.295 457.002 120.741C457.002 113.592 457.002 106.442 457.002 99.2929C457.002 92.6749 457.002 86.0576 457.002 79.4397C457.002 73.4822 457.002 67.524 457.002 61.5666C457.002 56.3973 457.002 51.2272 457.002 46.0578C457.002 41.793 457.002 37.5275 457.002 33.2627C457.002 30.0565 457.002 26.8511 457.002 23.645C457.002 21.6073 457.002 19.5697 457.002 17.532C457.002 16.8036 456.997 16.0752 457.002 15.3469C457.035 10.9236 459.076 6.69197 462.588 3.98566C465.187 1.98338 468.34 1.01467 471.601 1.01099C473.179 1.00878 474.758 1.01099 476.336 1.01099C479.653 1.01099 482.971 1.01099 486.289 1.01099C491.071 1.01099 495.852 1.01099 500.634 1.01099C506.606 1.01099 512.578 1.01099 518.55 1.01099C525.459 1.01099 532.368 1.01099 539.278 1.01099C546.808 1.01099 554.338 1.01099 561.867 1.01099C569.786 1.01099 577.706 1.01099 585.625 1.01099C593.611 1.01099 601.597 1.01099 609.583 1.01099C617.384 1.01099 625.185 1.01099 632.987 1.01099C640.329 1.01099 647.672 1.01099 655.014 1.01099C661.623 1.01099 668.232 1.01099 674.842 1.01099C680.442 1.01099 686.044 1.01099 691.644 1.01099C695.963 1.01099 700.281 1.01099 704.6 1.01099C707.361 1.01099 710.123 1.01099 712.884 1.01099C713.989 1.01099 715.1 0.980763 716.204 1.02057C720.725 1.18645 724.993 3.55512 727.531 7.3046C729.205 9.77869 729.992 12.6612 729.996 15.6329C729.998 16.8228 729.996 18.0127 729.996 19.2025C729.996 21.6493 729.996 24.0962 729.996 26.543C729.996 30.1192 729.996 33.6947 729.996 37.2709C729.996 41.8476 729.996 46.4249 729.996 51.0016C729.996 56.4518 729.996 61.9013 729.996 67.3515C729.996 73.5464 729.996 79.7412 729.996 85.936C729.996 92.7471 729.996 99.559 729.996 106.37C729.996 113.694 729.996 121.016 729.996 128.34C729.996 136.002 729.996 143.664 729.996 151.325C729.996 159.243 729.996 167.162 729.996 175.08C729.996 183.078 729.996 191.076 729.996 199.074C729.996 207.048 729.996 215.022 729.996 222.995C729.996 230.817 729.996 238.638 729.996 246.459C729.996 254 729.996 261.541 729.996 269.082C729.996 276.215 729.996 283.347 729.996 290.479C729.996 297.075 729.996 303.67 729.996 310.266C729.996 316.197 729.996 322.128 729.996 328.059C729.996 333.211 729.996 338.364 729.996 343.517C729.996 347.732 729.996 351.945 729.996 356.16C729.996 359.333 729.996 362.506 729.996 365.679C729.996 367.663 729.996 369.647 729.996 371.631C729.996 372.369 730.006 373.109 729.995 373.848C729.927 378.371 727.691 382.684 724.014 385.32C721.46 387.15 718.446 387.999 715.326 388C713.678 388 712.03 388 710.383 388C707.007 388 703.631 388 700.255 388C695.424 388 690.594 388 685.763 388C679.733 388 673.702 388 667.672 388C660.754 388 653.836 388 646.919 388C639.347 388 631.776 388 624.204 388C616.3 388 608.396 388 600.492 388C592.509 388 584.524 388 576.541 388C568.752 388 560.963 388 553.173 388C545.853 388 538.532 388 531.212 388C524.635 388 518.058 388 511.482 388C505.923 388 500.364 388 494.806 388C490.54 388 486.274 388 482.008 388C479.304 388 476.599 388 473.895 388C473.036 388 472.178 388 471.321 388Z" stroke="#9E9E9E" stroke-width="1.5" stroke-miterlimit="10" stroke-linecap="round" stroke-linejoin="round"/>
<path d="M476.105 354.978C474.605 354.97 474.064 353.678 474.064 352.406C474.064 351.215 474.064 350.024 474.064 348.833C474.064 346.602 474.064 344.372 474.064 342.141C474.064 338.976 474.064 335.81 474.064 332.645C474.064 328.651 474.064 324.655 474.064 320.66C474.064 315.94 474.064 311.22 474.064 306.5C474.064 301.16 474.064 295.819 474.064 290.479C474.064 284.623 474.064 278.767 474.064 272.911C474.064 266.644 474.064 260.377 474.064 254.11C474.064 247.537 474.064 240.964 474.064 234.391C474.064 227.617 474.064 220.843 474.064 214.068C474.064 207.198 474.064 200.327 474.064 193.456C474.064 186.594 474.064 179.731 474.064 172.869C474.064 166.119 474.064 159.37 474.064 152.621C474.064 146.089 474.064 139.557 474.064 133.025C474.064 126.816 474.064 120.606 474.064 114.398C474.064 108.615 474.064 102.834 474.064 97.0516C474.064 91.802 474.064 86.5516 474.064 81.302C474.064 76.689 474.064 72.076 474.064 67.4623C474.064 63.5907 474.064 59.7192 474.064 55.8476C474.064 52.8222 474.064 49.7968 474.064 46.7721C474.064 44.6976 474.064 42.6239 474.064 40.5494C474.064 39.5314 474.061 38.5126 474.064 37.4945C474.067 36.2227 474.827 35.2223 476.164 35.1803C477.172 35.1486 478.187 35.1803 479.196 35.1803C481.59 35.1803 483.985 35.1803 486.379 35.1803C489.971 35.1803 493.563 35.1803 497.155 35.1803C501.757 35.1803 506.359 35.1803 510.962 35.1803C516.388 35.1803 521.814 35.1803 527.24 35.1803C533.302 35.1803 539.363 35.1803 545.425 35.1803C551.936 35.1803 558.447 35.1803 564.958 35.1803C571.732 35.1803 578.504 35.1803 585.277 35.1803C592.125 35.1803 598.973 35.1803 605.821 35.1803C612.556 35.1803 619.292 35.1803 626.027 35.1803C632.463 35.1803 638.899 35.1803 645.336 35.1803C651.285 35.1803 657.235 35.1803 663.185 35.1803C668.461 35.1803 673.736 35.1803 679.012 35.1803C683.428 35.1803 687.843 35.1803 692.258 35.1803C695.626 35.1803 698.994 35.1803 702.361 35.1803C704.493 35.1803 706.626 35.1803 708.758 35.1803C709.537 35.1803 710.37 35.0955 711.146 35.1965C712.568 35.3802 712.934 36.6225 712.934 37.8302C712.934 39.0644 712.934 40.2979 712.934 41.5321C712.934 43.8013 712.934 46.0705 712.934 48.3398C712.934 51.5393 712.934 54.7395 712.934 57.939C712.934 61.9648 712.934 65.9898 712.934 70.0155C712.934 74.7621 712.934 79.5086 712.934 84.2551C712.934 89.6176 712.934 94.9808 712.934 100.343C712.934 106.218 712.934 112.092 712.934 117.966C712.934 124.247 712.934 130.528 712.934 136.809C712.934 143.392 712.934 149.974 712.934 156.557C712.934 163.337 712.934 170.117 712.934 176.897C712.934 183.769 712.934 190.641 712.934 197.514C712.934 204.374 712.934 211.234 712.934 218.094C712.934 224.837 712.934 231.58 712.934 238.323C712.934 244.844 712.934 251.365 712.934 257.886C712.934 264.081 712.934 270.275 712.934 276.469C712.934 282.232 712.934 287.996 712.934 293.759C712.934 298.985 712.934 304.212 712.934 309.44C712.934 314.025 712.934 318.612 712.934 323.197C712.934 327.038 712.934 330.878 712.934 334.718C712.934 337.708 712.934 340.698 712.934 343.688C712.934 345.722 712.934 347.757 712.934 349.792C712.934 350.766 712.942 351.741 712.934 352.716C712.923 353.994 712.116 354.946 710.801 354.979C709.74 355.006 708.675 354.979 707.614 354.979C705.173 354.979 702.733 354.979 700.293 354.979C696.662 354.979 693.03 354.979 689.399 354.979C684.764 354.979 680.129 354.979 675.494 354.979C670.042 354.979 664.591 354.979 659.139 354.979C653.058 354.979 646.977 354.979 640.896 354.979C634.372 354.979 627.849 354.979 621.325 354.979C614.546 354.979 607.768 354.979 600.988 354.979C594.117 354.979 587.246 354.979 580.375 354.979C573.648 354.979 566.92 354.979 560.193 354.979C553.772 354.979 547.352 354.979 540.931 354.979C535.004 354.979 529.078 354.979 523.151 354.979C517.905 354.979 512.66 354.979 507.414 354.979C503.036 354.979 498.658 354.979 494.281 354.979C490.958 354.979 487.636 354.979 484.314 354.979C482.234 354.979 480.154 354.979 478.073 354.979C477.416 354.978 476.76 354.978 476.105 354.978Z" stroke="#9E9E9E" stroke-width="1.5" stroke-miterlimit="10" stroke-linecap="round" stroke-linejoin="round"/>
<path d="M595.206 18.0662C595.193 16.512 593.207 15.7596 592.192 16.9552C591.183 18.1435 592.233 20.0084 593.77 19.7581C594.593 19.6248 595.199 18.8967 595.206 18.0662Z" stroke="#9E9E9E" stroke-width="1.5" stroke-miterlimit="10" stroke-linecap="round" stroke-linejoin="round"/>
<path d="M601.463 371.493C601.455 368.16 599.318 365.109 596.178 363.985C593.045 362.862 589.445 363.857 587.332 366.432C585.22 369.007 584.944 372.731 586.654 375.589C588.365 378.447 591.777 379.963 595.043 379.315C598.297 378.669 600.866 375.982 601.37 372.702C601.431 372.302 601.462 371.898 601.463 371.493Z" stroke="#9E9E9E" stroke-width="1.5" stroke-miterlimit="10" stroke-linecap="round" stroke-linejoin="round"/>
<path d="M431.164 452.642C431.149 456.195 429.719 459.641 427.184 462.142C424.688 464.606 421.274 465.98 417.769 465.999C417.23 466.002 416.691 465.999 416.152 465.999C414.602 465.999 413.052 465.999 411.503 465.999C409.061 465.999 406.62 465.999 404.178 465.999C400.939 465.999 397.7 465.999 394.461 465.999C390.501 465.999 386.541 465.999 382.582 465.999C378.047 465.999 373.512 465.999 368.976 465.999C363.945 465.999 358.914 465.999 353.884 465.999C348.443 465.999 343.003 465.999 337.562 465.999C331.826 465.999 326.091 465.999 320.355 465.999C314.441 465.999 308.528 465.999 302.614 465.999C296.592 465.999 290.57 465.999 284.547 465.999C278.534 465.999 272.52 465.999 266.506 465.999C260.619 465.999 254.731 465.999 248.843 465.999C243.166 465.999 237.488 465.999 231.81 465.999C226.415 465.999 221.019 465.999 215.624 465.999C210.67 465.999 205.717 465.999 200.764 465.999C196.323 465.999 191.882 465.999 187.441 465.999C183.593 465.999 179.746 465.999 175.898 465.999C172.788 465.999 169.677 465.999 166.567 465.999C164.271 465.999 161.975 465.999 159.679 465.999C158.294 465.999 156.908 465.999 155.523 465.999C154.57 465.999 153.622 466.01 152.672 465.886C149.174 465.431 145.939 463.577 143.786 460.788C141.97 458.435 141.016 455.536 141.007 452.574C141.004 451.567 141.007 450.561 141.007 449.555C141.007 447.21 141.007 444.864 141.007 442.519C141.007 439.032 141.007 435.546 141.007 432.059C141.007 427.647 141.007 423.234 141.007 418.822C141.007 413.71 141.007 408.598 141.007 403.485C141.007 397.871 141.007 392.257 141.007 386.642C141.007 380.702 141.007 374.762 141.007 368.822C141.007 362.831 141.007 356.84 141.007 350.849C141.007 344.985 141.007 339.12 141.007 333.256C141.007 327.698 141.007 322.139 141.007 316.581C141.007 311.6 141.007 306.619 141.007 301.637C141.007 297.411 141.007 293.184 141.007 288.958C141.007 285.68 141.007 282.402 141.007 279.125C141.007 277.042 141.007 274.958 141.007 272.875C141.007 272.033 140.988 271.189 141.014 270.347C141.123 266.82 142.676 263.414 145.263 261.007C147.737 258.705 151.026 257.433 154.404 257.415C154.984 257.412 155.563 257.415 156.143 257.415C157.723 257.415 159.303 257.415 160.884 257.415C163.364 257.415 165.843 257.415 168.323 257.415C171.591 257.415 174.859 257.415 178.127 257.415C182.088 257.415 186.048 257.415 190.009 257.415C194.589 257.415 199.169 257.415 203.749 257.415C208.796 257.415 213.844 257.415 218.892 257.415C224.33 257.415 229.768 257.415 235.207 257.415C240.967 257.415 246.728 257.415 252.489 257.415C258.408 257.415 264.327 257.415 270.245 257.415C276.253 257.415 282.26 257.415 288.267 257.415C294.295 257.415 300.323 257.415 306.351 257.415C312.233 257.415 318.114 257.415 323.996 257.415C329.663 257.415 335.331 257.415 340.998 257.415C346.38 257.415 351.761 257.415 357.143 257.415C362.078 257.415 367.014 257.415 371.949 257.415C376.369 257.415 380.788 257.415 385.207 257.415C389.019 257.415 392.831 257.415 396.643 257.415C399.734 257.415 402.824 257.415 405.915 257.415C408.178 257.415 410.44 257.415 412.703 257.415C414.046 257.415 415.389 257.415 416.733 257.415C417.787 257.415 418.83 257.415 419.877 257.582C423.378 258.141 426.564 260.099 428.638 262.966C430.303 265.267 431.156 268.04 431.163 270.869C431.166 271.932 431.163 272.996 431.163 274.059C431.163 276.451 431.163 278.844 431.163 281.237C431.163 284.752 431.163 288.267 431.163 291.782C431.163 296.237 431.163 300.691 431.163 305.146C431.163 310.281 431.163 315.417 431.163 320.552C431.163 326.182 431.163 331.811 431.163 337.441C431.163 343.388 431.163 349.335 431.163 355.282C431.163 361.272 431.163 367.262 431.163 373.252C431.163 379.107 431.163 384.963 431.163 390.818C431.163 396.345 431.163 401.872 431.163 407.398C431.163 412.369 431.163 417.339 431.163 422.31C431.163 426.503 431.163 430.696 431.163 434.89C431.163 438.119 431.163 441.348 431.163 444.577C431.163 446.618 431.163 448.659 431.163 450.7C431.164 451.347 431.164 451.995 431.164 452.642Z" stroke="#9E9E9E" stroke-width="1.425" stroke-miterlimit="10" stroke-linecap="round" stroke-linejoin="round"/>
<path d="M146.175 367.086C145.044 367.096 144.497 368.541 145.367 369.28C146.231 370.015 147.589 369.25 147.407 368.132C147.31 367.533 146.78 367.091 146.175 367.086Z" stroke="#9E9E9E" stroke-width="1.425" stroke-miterlimit="10" stroke-linecap="round" stroke-linejoin="round"/>
<path d="M146.181 359.224C145.077 359.243 145.076 360.88 146.181 360.879C147.286 360.878 147.288 359.228 146.181 359.224Z" stroke="#9E9E9E" stroke-width="1.425" stroke-miterlimit="10" stroke-linecap="round" stroke-linejoin="round"/>
<path d="M420.8 451.344C420.799 452.928 419.898 454.418 418.493 455.155C417.719 455.561 416.903 455.649 416.05 455.649C415.035 455.649 414.021 455.649 413.007 455.649C411.104 455.649 409.201 455.649 407.298 455.649C404.599 455.649 401.899 455.649 399.198 455.649C395.793 455.649 392.387 455.649 388.982 455.649C384.962 455.649 380.942 455.649 376.922 455.649C372.379 455.649 367.837 455.649 363.294 455.649C358.32 455.649 353.346 455.649 348.371 455.649C343.073 455.649 337.774 455.649 332.476 455.649C326.913 455.649 321.351 455.649 315.789 455.649C310.085 455.649 304.382 455.649 298.679 455.649C292.893 455.649 287.107 455.649 281.321 455.649C275.561 455.649 269.8 455.649 264.039 455.649C258.395 455.649 252.751 455.649 247.107 455.649C241.67 455.649 236.234 455.649 230.798 455.649C225.661 455.649 220.524 455.649 215.386 455.649C210.64 455.649 205.894 455.649 201.147 455.649C196.883 455.649 192.619 455.649 188.355 455.649C184.664 455.649 180.973 455.649 177.282 455.649C174.257 455.649 171.231 455.649 168.205 455.649C165.941 455.649 163.677 455.649 161.413 455.649C159.989 455.649 158.565 455.649 157.141 455.649C156.64 455.649 156.138 455.659 155.637 455.649C154.045 455.617 152.568 454.72 151.842 453.297C151.416 452.461 151.372 451.596 151.372 450.686C151.372 449.236 151.372 447.785 151.372 446.335C151.372 443.691 151.372 441.046 151.372 438.402C151.372 434.757 151.372 431.111 151.372 427.465C151.372 423.011 151.372 418.557 151.372 414.102C151.372 409.031 151.372 403.961 151.372 398.89C151.372 393.395 151.372 387.901 151.372 382.406C151.372 376.679 151.372 370.953 151.372 365.227C151.372 359.478 151.372 353.729 151.372 347.98C151.372 342.367 151.372 336.754 151.372 331.142C151.372 325.889 151.372 320.636 151.372 315.383C151.372 310.652 151.372 305.92 151.372 301.189C151.372 297.187 151.372 293.186 151.372 289.184C151.372 286.104 151.372 283.025 151.372 279.945C151.372 277.981 151.372 276.016 151.372 274.051C151.372 273.338 151.347 272.619 151.376 271.906C151.44 270.315 152.405 268.855 153.85 268.177C154.602 267.825 155.38 267.768 156.19 267.768C157.241 267.768 158.293 267.768 159.344 267.768C161.281 267.768 163.217 267.768 165.154 267.768C167.875 267.768 170.596 267.768 173.317 267.768C176.736 267.768 180.155 267.768 183.575 267.768C187.614 267.768 191.653 267.768 195.692 267.768C200.251 267.768 204.811 267.768 209.37 267.768C214.357 267.768 219.344 267.768 224.332 267.768C229.656 267.768 234.98 267.768 240.305 267.768C245.874 267.768 251.444 267.768 257.014 267.768C262.738 267.768 268.461 267.768 274.186 267.768C279.972 267.768 285.759 267.768 291.545 267.768C297.303 267.768 303.061 267.768 308.819 267.768C314.457 267.768 320.094 267.768 325.732 267.768C331.158 267.768 336.584 267.768 342.01 267.768C347.119 267.768 352.229 267.768 357.337 267.768C362.055 267.768 366.772 267.768 371.489 267.768C375.735 267.768 379.981 267.768 384.227 267.768C387.897 267.768 391.566 267.768 395.236 267.768C398.237 267.768 401.238 267.768 404.24 267.768C406.482 267.768 408.723 267.768 410.965 267.768C412.356 267.768 413.747 267.768 415.138 267.768C415.659 267.768 416.184 267.747 416.704 267.774C418.299 267.854 419.752 268.84 420.414 270.291C420.788 271.113 420.8 271.952 420.8 272.829C420.8 274.331 420.8 275.833 420.8 277.335C420.8 280.023 420.8 282.711 420.8 285.399C420.8 289.069 420.8 292.739 420.8 296.409C420.8 300.876 420.8 305.343 420.8 309.81C420.8 314.899 420.8 319.987 420.8 325.076C420.8 330.582 420.8 336.087 420.8 341.593C420.8 347.324 420.8 353.055 420.8 358.786C420.8 364.549 420.8 370.312 420.8 376.075C420.8 381.678 420.8 387.282 420.8 392.885C420.8 398.136 420.8 403.387 420.8 408.637C420.8 413.343 420.8 418.049 420.8 422.755C420.8 426.723 420.8 430.691 420.8 434.66C420.8 437.699 420.8 440.737 420.8 443.776C420.8 445.692 420.8 447.609 420.8 449.525C420.8 450.131 420.8 450.738 420.8 451.344Z" stroke="#9E9E9E" stroke-width="1.425" stroke-miterlimit="10" stroke-linecap="round" stroke-linejoin="round"/>
<path d="M176.87 257.086C176.87 256.508 176.859 256.058 177.533 256.044C178.537 256.023 179.544 256.044 180.548 256.044C183.186 256.044 185.825 256.044 188.463 256.044C188.645 256.044 188.867 256.013 189.036 256.098C189.406 256.284 189.315 256.748 189.315 257.086" stroke="#9E9E9E" stroke-width="1.425" stroke-miterlimit="10" stroke-linecap="round" stroke-linejoin="round"/>
<path d="M162.882 257.086C162.882 256.508 162.871 256.058 163.546 256.044C164.549 256.023 165.556 256.044 166.56 256.044C169.198 256.044 171.837 256.044 174.475 256.044C174.657 256.044 174.88 256.013 175.048 256.098C175.418 256.284 175.327 256.748 175.327 257.086" stroke="#9E9E9E" stroke-width="1.425" stroke-miterlimit="10" stroke-linecap="round" stroke-linejoin="round"/>
<path d="M140.781 285.615C140.106 285.615 139.738 285.562 139.738 284.842C139.738 283.683 139.738 282.524 139.738 281.365C139.738 278.374 139.738 275.382 139.738 272.39C139.738 272.187 139.695 271.926 139.758 271.727C139.901 271.272 140.409 271.364 140.781 271.364" stroke="#9E9E9E" stroke-width="1.425" stroke-miterlimit="10" stroke-linecap="round" stroke-linejoin="round"/>
<path d="M7.97289 451.721C7.98533 453.99 8.46837 456.235 9.4248 458.295C10.4512 460.505 11.9977 462.46 13.9093 463.971C15.7854 465.453 18.0043 466.492 20.3433 466.985C21.5902 467.247 22.8468 467.321 24.1161 467.321C25.4906 467.321 26.865 467.321 28.2398 467.321C30.6898 467.321 33.1398 467.321 35.5898 467.321C38.7894 467.321 41.989 467.321 45.1886 467.321C48.8293 467.321 52.4702 467.321 56.1109 467.321C59.889 467.321 63.6671 467.321 67.4455 467.321C71.0352 467.321 74.6251 467.321 78.2147 467.321C81.2846 467.321 84.3545 467.321 87.4244 467.321C89.6931 467.321 91.9621 467.321 94.2307 467.321C95.3635 467.321 96.4963 467.321 97.6291 467.321C99.2402 467.321 100.833 467.116 102.377 466.646C104.68 465.945 106.813 464.706 108.56 463.048C110.316 461.383 111.671 459.314 112.496 457.039C113.119 455.323 113.427 453.51 113.43 451.687C113.431 451.268 113.43 450.849 113.43 450.431C113.43 449.447 113.43 448.464 113.43 447.481C113.43 445.98 113.43 444.478 113.43 442.978C113.43 441.013 113.43 439.049 113.43 437.085C113.43 434.723 113.43 432.362 113.43 430C113.43 427.268 113.43 424.535 113.43 421.802C113.43 418.763 113.43 415.723 113.43 412.684C113.43 409.389 113.43 406.095 113.43 402.801C113.43 399.323 113.43 395.846 113.43 392.369C113.43 388.722 113.43 385.076 113.43 381.429C113.43 377.685 113.43 373.94 113.43 370.195C113.43 366.415 113.43 362.634 113.43 358.854C113.43 355.079 113.43 351.304 113.43 347.53C113.43 343.803 113.43 340.076 113.43 336.349C113.43 332.733 113.43 329.116 113.43 325.5C113.43 322.064 113.43 318.628 113.43 315.193C113.43 311.952 113.43 308.712 113.43 305.471C113.43 302.498 113.43 299.524 113.43 296.55C113.43 293.896 113.43 291.241 113.43 288.586C113.43 286.314 113.43 284.042 113.43 281.769C113.43 279.907 113.43 278.044 113.43 276.181C113.43 274.794 113.43 273.407 113.43 272.019C113.43 271.161 113.43 270.304 113.43 269.445C113.43 269.086 113.434 268.725 113.429 268.366C113.394 266.092 112.858 263.833 111.865 261.787C110.795 259.581 109.203 257.639 107.248 256.16C105.369 254.738 103.172 253.752 100.86 253.295C99.6483 253.056 98.43 253 97.2002 253C95.7788 253 94.3573 253 92.9356 253C90.4508 253 87.9659 253 85.4808 253C82.2681 253 79.0551 253 75.8425 253C72.1816 253 68.5204 253 64.8596 253C61.0827 253 57.3058 253 53.5293 253C49.953 253 46.3768 253 42.8005 253C39.7561 253 36.7114 253 33.667 253C31.436 253 29.2046 253 26.9736 253C25.8906 253 24.8076 253 23.7245 253C22.0409 253 20.3725 253.236 18.7682 253.756C16.4843 254.495 14.3852 255.764 12.667 257.442C10.9249 259.143 9.59337 261.256 8.80802 263.561C8.24971 265.2 7.97569 266.918 7.97258 268.649C7.97165 269.088 7.97258 269.527 7.97258 269.967C7.97258 270.973 7.97258 271.979 7.97258 272.985C7.97258 274.504 7.97258 276.024 7.97258 277.544C7.97258 279.525 7.97258 281.506 7.97258 283.487C7.97258 285.863 7.97258 288.239 7.97258 290.615C7.97258 293.36 7.97258 296.105 7.97258 298.851C7.97258 301.901 7.97258 304.952 7.97258 308.002C7.97258 311.296 7.97258 314.589 7.97258 317.883C7.97258 321.376 7.97258 324.87 7.97258 328.363C7.97258 332.014 7.97258 335.665 7.97258 339.317C7.97258 343.064 7.97258 346.811 7.97258 350.559C7.97258 354.33 7.97258 358.101 7.97258 361.871C7.97258 365.655 7.97258 369.439 7.97258 373.223C7.97258 376.946 7.97258 380.67 7.97258 384.393C7.97258 388.005 7.97258 391.616 7.97258 395.227C7.97258 398.656 7.97258 402.084 7.97258 405.513C7.97258 408.744 7.97258 411.975 7.97258 415.206C7.97258 418.169 7.97258 421.131 7.97258 424.094C7.97258 426.729 7.97258 429.363 7.97258 431.998C7.97258 434.262 7.97258 436.526 7.97258 438.79C7.97258 440.635 7.97258 442.481 7.97258 444.326C7.97258 445.694 7.97258 447.062 7.97258 448.43C7.97258 449.266 7.97258 450.101 7.97258 450.936C7.97289 451.198 7.97289 451.46 7.97289 451.721Z" stroke="#9E9E9E" stroke-width="1.34" stroke-miterlimit="10" stroke-linecap="round" stroke-linejoin="round"/>
<path d="M72.1221 261.504C72.1218 260.793 71.663 260.141 70.9934 259.901C70.324 259.662 69.555 259.874 69.1037 260.424C68.6523 260.973 68.5935 261.769 68.9587 262.379C69.3243 262.989 70.0529 263.312 70.7507 263.174C71.4456 263.036 71.995 262.463 72.1024 261.762C72.1153 261.677 72.1221 261.591 72.1221 261.504Z" stroke="#9E9E9E" stroke-width="1.34" stroke-miterlimit="10" stroke-linecap="round" stroke-linejoin="round"/>
<path d="M65.6146 261.498C65.6146 260.957 65.2883 260.47 64.8328 260.332C64.6495 260.276 64.4564 260.292 64.2684 260.292C63.7663 260.292 63.2642 260.292 62.7617 260.292C61.2557 260.292 59.7496 260.292 58.2436 260.292C57.4586 260.292 56.5707 260.292 55.8478 260.298C54.8029 260.426 54.5682 262.115 55.5334 262.602C55.7067 262.689 55.8834 262.703 56.0693 262.704C56.476 262.706 56.883 262.704 57.2897 262.704C58.7698 262.704 60.2499 262.704 61.7299 262.704C62.6701 262.704 63.6161 262.74 64.5559 262.704C65.0064 262.687 65.4097 262.387 65.5583 261.886C65.5958 261.761 65.6146 261.63 65.6146 261.498Z" stroke="#9E9E9E" stroke-width="1.34" stroke-miterlimit="10" stroke-linecap="round" stroke-linejoin="round"/>
<path d="M35.4381 258.837C32.7199 258.837 30.0018 258.837 27.2836 258.837C26.0751 258.837 24.8667 258.837 23.6582 258.837C22.8178 258.838 21.9865 258.921 21.1699 259.123C19.2195 259.605 17.441 260.702 16.1347 262.225C14.8285 263.748 14.0174 265.67 13.8417 267.667C13.7975 268.168 13.8041 268.669 13.8041 269.171C13.8041 269.942 13.8041 270.713 13.8041 271.484C13.8041 272.766 13.8041 274.048 13.8041 275.33C13.8041 277.079 13.8041 278.828 13.8041 280.577C13.8041 282.742 13.8041 284.907 13.8041 287.071C13.8041 289.594 13.8041 292.117 13.8041 294.64C13.8041 297.479 13.8041 300.317 13.8041 303.156C13.8041 306.27 13.8041 309.384 13.8041 312.498C13.8041 315.83 13.8041 319.163 13.8041 322.496C13.8041 325.988 13.8041 329.48 13.8041 332.972C13.8041 336.584 13.8041 340.197 13.8041 343.809C13.8041 347.512 13.8041 351.216 13.8041 354.92C13.8041 358.625 13.8041 362.331 13.8041 366.036C13.8041 369.715 13.8041 373.393 13.8041 377.072C13.8041 380.674 13.8041 384.277 13.8041 387.88C13.8041 391.377 13.8041 394.875 13.8041 398.372C13.8041 401.676 13.8041 404.98 13.8041 408.284C13.8041 411.366 13.8041 414.447 13.8041 417.529C13.8041 420.34 13.8041 423.15 13.8041 425.961C13.8041 428.465 13.8041 430.968 13.8041 433.472C13.8041 435.591 13.8041 437.711 13.8041 439.831C13.8041 441.533 13.8041 443.235 13.8041 444.937C13.8041 446.175 13.8041 447.413 13.8041 448.651C13.8041 449.371 13.8041 450.091 13.8041 450.811C13.8041 451.464 13.8146 452.112 13.9124 452.761C14.2099 454.733 15.1268 456.592 16.5122 458.03C17.9039 459.474 19.7409 460.466 21.7153 460.836C22.6606 461.012 23.6055 461.003 24.5608 461.003C26.1206 461.003 27.6804 461.003 29.2402 461.003C31.779 461.003 34.3181 461.003 36.8568 461.003C40.0879 461.003 43.3191 461.003 46.5502 461.003C50.1685 461.003 53.7871 461.003 57.4054 461.003C61.1018 461.003 64.7986 461.003 68.4951 461.003C71.9829 461.003 75.4706 461.003 78.9584 461.003C81.9557 461.003 84.9529 461.003 87.9501 461.003C90.1254 461.003 92.301 461.003 94.4762 461.003C95.5517 461.003 96.6269 461.003 97.7024 461.003C99.1793 461.003 100.624 460.728 101.969 460.108C103.799 459.264 105.339 457.847 106.335 456.098C107.168 454.636 107.593 452.976 107.599 451.296C107.6 450.907 107.599 450.518 107.599 450.13C107.599 449.197 107.599 448.263 107.599 447.33C107.599 445.892 107.599 444.454 107.599 443.015C107.599 441.137 107.599 439.259 107.599 437.381C107.599 435.104 107.599 432.828 107.599 430.552C107.599 427.919 107.599 425.286 107.599 422.653C107.599 419.719 107.599 416.784 107.599 413.849C107.599 410.671 107.599 407.492 107.599 404.314C107.599 400.933 107.599 397.553 107.599 394.172C107.599 390.628 107.599 387.084 107.599 383.539C107.599 379.889 107.599 376.24 107.599 372.59C107.599 368.895 107.599 365.2 107.599 361.504C107.599 357.802 107.599 354.1 107.599 350.398C107.599 346.717 107.599 343.036 107.599 339.356C107.599 335.787 107.599 332.217 107.599 328.648C107.599 325.219 107.599 321.789 107.599 318.36C107.599 315.119 107.599 311.878 107.599 308.637C107.599 305.618 107.599 302.598 107.599 299.579C107.599 296.863 107.599 294.147 107.599 291.431C107.599 289.051 107.599 286.67 107.599 284.29C107.599 282.293 107.599 280.297 107.599 278.3C107.599 276.729 107.599 275.157 107.599 273.586C107.599 272.507 107.599 271.427 107.599 270.348C107.599 269.799 107.599 269.25 107.599 268.701C107.599 267.54 107.434 266.396 107.046 265.298C106.375 263.401 105.107 261.738 103.455 260.585C101.827 259.449 99.8758 258.846 97.8921 258.837C95.1552 258.825 92.4181 258.837 89.6812 258.837C88.4824 258.837 87.2836 258.836 86.0847 258.837C85.6334 258.838 85.2092 258.93 84.9177 259.303C84.4415 259.912 84.4991 260.841 84.3309 261.557C84.102 262.532 83.7185 263.498 83.057 264.265C81.9622 265.533 80.3476 265.636 78.7548 265.636C75.8485 265.636 72.9425 265.636 70.0363 265.636C67.0867 265.636 64.1371 265.636 61.1876 265.636C59.69 265.636 58.1922 265.636 56.6947 265.636C53.1789 265.636 49.663 265.636 46.1469 265.636C44.9553 265.636 43.7639 265.636 42.5722 265.636C41.9126 265.636 41.3291 265.796 40.6813 265.647C38.6941 265.19 37.5613 263.546 37.0957 261.655C36.8378 260.606 36.9509 258.835 35.4381 258.837Z" stroke="#9E9E9E" stroke-width="1.34" stroke-miterlimit="10" stroke-linecap="round" stroke-linejoin="round"/>
<path d="M1.76016 779.158C1.2084 777.602 1.00096 775.994 1.00096 774.351C1.00096 773.281 1.00096 772.211 1.00096 771.141C1.00096 769.098 1.00096 767.054 1.00096 765.011C1.00096 762.097 1.00096 759.183 1.00096 756.269C1.00096 752.588 1.00096 748.907 1.00096 745.226C1.00096 740.861 1.00096 736.497 1.00096 732.132C1.00096 727.224 1.00096 722.316 1.00096 717.409C1.00096 712.044 1.00096 706.679 1.00096 701.313C1.00096 695.569 1.00096 689.826 1.00096 684.082C1.00096 678.111 1.00096 672.141 1.00096 666.17C1.00096 660.052 1.00096 653.934 1.00096 647.816C1.00096 641.654 1.00096 635.493 1.00096 629.331C1.00096 623.203 1.00096 617.075 1.00096 610.947C1.00096 605.008 1.00096 599.068 1.00096 593.129C1.00096 587.456 1.00096 581.783 1.00096 576.109C1.00096 570.806 1.00096 565.501 1.00096 560.197C1.00096 555.346 1.00096 550.496 1.00096 545.644C1.00096 541.391 1.00096 537.138 1.00096 532.884C1.00096 529.31 1.00096 525.736 1.00096 522.162C1.00096 519.36 1.00096 516.558 1.00096 513.757C1.00096 511.854 1.00096 509.952 1.00096 508.05C1.00096 507.137 0.998799 506.224 1.00096 505.31C1.00528 503.279 1.40649 501.288 2.28814 499.449C3.57892 496.758 5.7881 494.559 8.48348 493.275C10.2965 492.411 12.2636 492.009 14.2661 492.001C14.8935 491.999 15.5201 492.001 16.1475 492.001C17.4678 492.001 18.7889 492.001 20.1092 492.001C22.0864 492.001 24.0636 492.001 26.0409 492.001C28.6116 492.001 31.1824 492.001 33.7532 492.001C36.8786 492.001 40.0032 492.001 43.1286 492.001C46.7784 492.001 50.4275 492.001 54.0773 492.001C58.1743 492.001 62.2707 492.001 66.3678 492.001C70.8798 492.001 75.3918 492.001 79.9038 492.001C84.7845 492.001 89.6653 492.001 94.5468 492.001C99.7503 492.001 104.954 492.001 110.158 492.001C115.662 492.001 121.165 492.001 126.669 492.001C132.379 492.001 138.091 492.001 143.802 492.001C149.696 492.001 155.591 492.001 161.485 492.001C167.543 492.001 173.6 492.001 179.658 492.001C185.781 492.001 191.904 492.001 198.027 492.001C204.195 492.001 210.362 492.001 216.53 492.001C222.696 492.001 228.862 492.001 235.028 492.001C241.171 492.001 247.315 492.001 253.458 492.001C259.481 492.001 265.504 492.001 271.527 492.001C277.409 492.001 283.292 492.001 289.174 492.001C294.869 492.001 300.564 492.001 306.259 492.001C311.744 492.001 317.227 492.001 322.712 492.001C327.892 492.001 333.073 492.001 338.254 492.001C343.109 492.001 347.963 492.001 352.817 492.001C357.318 492.001 361.818 492.001 366.318 492.001C370.38 492.001 374.441 492.001 378.503 492.001C382.099 492.001 385.695 492.001 389.291 492.001C392.376 492.001 395.461 492.001 398.545 492.001C401.072 492.001 403.599 492.001 406.126 492.001C408.055 492.001 409.985 492.001 411.914 492.001C413.183 492.001 414.453 492.001 415.722 492.001C416.295 492.001 416.868 491.998 417.44 492.001C419.652 492.014 421.824 492.526 423.775 493.582C426.401 495.004 428.492 497.314 429.642 500.068C430.353 501.771 430.65 503.57 430.652 505.407C430.653 506.4 430.652 507.391 430.652 508.383C430.652 510.367 430.652 512.35 430.652 514.334C430.652 517.188 430.652 520.043 430.652 522.898C430.652 526.528 430.652 530.158 430.652 533.787C430.652 538.087 430.652 542.388 430.652 546.689C430.652 551.58 430.652 556.47 430.652 561.361C430.652 566.696 430.652 572.032 430.652 577.368C430.652 583.065 430.652 588.761 430.652 594.459C430.652 600.439 430.652 606.42 430.652 612.401C430.652 618.512 430.652 624.622 430.652 630.733C430.652 636.895 430.652 643.057 430.652 649.219C430.652 655.329 430.652 661.44 430.652 667.55C430.652 673.505 430.652 679.46 430.652 685.416C430.652 691.136 430.652 696.856 430.652 702.577C430.652 707.911 430.652 713.245 430.652 718.579C430.652 723.448 430.652 728.317 430.652 733.186C430.652 737.503 430.652 741.822 430.652 746.139C430.652 749.765 430.652 753.392 430.652 757.018C430.652 759.869 430.652 762.721 430.652 765.572C430.652 767.552 430.652 769.532 430.652 771.511C430.652 772.499 430.653 773.486 430.652 774.473C430.65 776.075 430.429 777.643 429.893 779.159" stroke="#9E9E9E" stroke-width="1.34" stroke-miterlimit="10" stroke-linecap="round" stroke-linejoin="round"/>
<path d="M215.817 792.192C215.195 792.192 214.572 792.192 213.949 792.192C212.185 792.192 210.42 792.192 208.656 792.192C205.907 792.192 203.157 792.192 200.408 792.192C196.829 792.192 193.251 792.192 189.673 792.192C185.399 792.192 181.127 792.192 176.854 792.192C172.084 792.192 167.314 792.192 162.545 792.192C157.416 792.192 152.287 792.192 147.158 792.192C141.825 792.192 136.494 792.192 131.161 792.192C125.782 792.192 120.404 792.192 115.025 792.192C109.755 792.192 104.486 792.192 99.2163 792.192C94.213 792.192 89.209 792.192 84.2056 792.192C79.6243 792.192 75.0421 792.192 70.4608 792.192C66.4395 792.192 62.419 792.192 58.3978 792.192C55.1333 792.192 51.8681 792.192 48.6036 792.192C46.2304 792.192 43.8573 792.192 41.4842 792.192C40.1586 792.192 38.8331 792.192 37.5083 792.192C35.9589 792.192 34.4094 792.192 32.8607 792.164C29.2405 792.097 25.6225 791.993 22.0102 791.746C18.6111 791.513 15.2126 791.167 11.856 790.579C8.77005 790.038 5.50987 789.324 2.77385 787.747C2.27057 787.457 1.78456 787.131 1.3432 786.753C0.973119 786.436 1.05088 786.246 1.05088 785.748C1.05088 784.546 1.05088 783.343 1.05088 782.141C1.05088 781.544 1.05088 780.946 1.05088 780.349C1.05088 780.107 0.9364 779.52 1.05088 779.303C1.1632 779.089 1.46344 779.177 1.77448 779.177C2.53049 779.177 3.28577 779.177 4.04178 779.177C5.28595 779.177 6.52939 779.177 7.77356 779.177C9.47853 779.177 11.1828 779.177 12.8878 779.177C15.0262 779.177 17.1646 779.177 19.303 779.177C21.8482 779.177 24.3934 779.177 26.9386 779.177C29.8633 779.177 32.788 779.177 35.7126 779.177C38.9894 779.177 42.2661 779.177 45.5428 779.177C49.163 779.177 52.7832 779.177 56.4034 779.177C60.3044 779.177 64.2061 779.177 68.1071 779.177C72.2788 779.177 76.4512 779.177 80.6229 779.177C85.0387 779.177 89.4538 779.177 93.8695 779.177C98.5013 779.177 103.133 779.177 107.765 779.177C112.586 779.177 117.407 779.177 122.228 779.177C127.212 779.177 132.195 779.177 137.178 779.177C142.296 779.177 147.414 779.177 152.532 779.177C157.758 779.177 162.984 779.177 168.209 779.177C173.542 779.177 178.873 779.177 184.206 779.177C189.565 779.177 194.925 779.177 200.285 779.177C205.671 779.177 211.057 779.177 216.443 779.177C221.828 779.177 227.213 779.177 232.598 779.177C237.955 779.177 243.312 779.177 248.668 779.177C253.97 779.177 259.271 779.177 264.573 779.177C269.791 779.177 275.01 779.177 280.229 779.177C285.338 779.177 290.447 779.177 295.557 779.177C300.529 779.177 305.501 779.177 310.474 779.177C315.305 779.177 320.136 779.177 324.967 779.177C329.582 779.177 334.198 779.177 338.815 779.177C343.213 779.177 347.611 779.177 352.008 779.177C356.161 779.177 360.312 779.177 364.465 779.177C368.344 779.177 372.223 779.177 376.103 779.177C379.682 779.177 383.262 779.177 386.841 779.177C390.093 779.177 393.345 779.177 396.598 779.177C399.496 779.177 402.394 779.177 405.292 779.177C407.82 779.177 410.347 779.177 412.875 779.177C414.981 779.177 417.087 779.177 419.193 779.177C420.863 779.177 422.533 779.177 424.203 779.177C425.411 779.177 426.617 779.177 427.824 779.177C428.541 779.177 429.258 779.177 429.975 779.177C430.636 779.177 430.586 779.054 430.586 779.823C430.586 781.006 430.586 782.188 430.586 783.371C430.586 783.98 430.586 784.588 430.586 785.198C430.586 785.537 430.673 786.011 430.586 786.341C430.391 787.08 428.975 787.705 428.33 788.037C425.458 789.52 422.165 790.183 418.996 790.711C415.584 791.28 412.13 791.584 408.68 791.807C405.267 792.027 401.844 792.127 398.424 792.17C396.931 792.189 395.438 792.192 393.944 792.192C392.532 792.192 391.121 792.192 389.709 792.192C387.261 792.192 384.813 792.192 382.365 792.192C379.038 792.192 375.711 792.192 372.384 792.192C368.333 792.192 364.283 792.192 360.232 792.192C355.615 792.192 350.998 792.192 346.38 792.192C341.352 792.192 336.324 792.192 331.296 792.192C325.987 792.192 320.679 792.192 315.371 792.192C309.99 792.192 304.609 792.192 299.229 792.192C293.907 792.192 288.585 792.192 283.263 792.192C278.156 792.192 273.05 792.192 267.943 792.192C263.207 792.192 258.472 792.192 253.737 792.192C249.529 792.192 245.322 792.192 241.114 792.192C237.59 792.192 234.067 792.192 230.543 792.192C227.86 792.192 225.176 792.192 222.493 792.192C220.806 792.192 219.119 792.192 217.432 792.192C216.892 792.192 216.355 792.192 215.817 792.192Z" stroke="#9E9E9E" stroke-width="1.34" stroke-miterlimit="10" stroke-linecap="round" stroke-linejoin="round"/>
<path d="M186.068 779.159C186.222 780.409 186.84 781.578 188.1 782.157C188.94 782.542 189.875 782.62 190.796 782.624C196.854 782.648 202.913 782.624 208.971 782.624C212.748 782.624 216.524 782.624 220.301 782.624C226.871 782.624 233.44 782.624 240.01 782.624C242.431 782.624 244.927 782.311 245.506 779.629C245.54 779.474 245.565 779.317 245.585 779.159" stroke="#9E9E9E" stroke-width="1.34" stroke-miterlimit="10" stroke-linecap="round" stroke-linejoin="round"/>
<path d="M430.218 786.544H1.43457" stroke="#9E9E9E" stroke-width="1.34" stroke-miterlimit="10" stroke-linecap="round" stroke-linejoin="round"/>
<rect x="10.123" y="505.467" width="411.407" height="257.183" rx="0.434431" stroke="#9E9E9E" stroke-width="1.34"/>
<path d="M217.347 501.333C217.335 499.923 215.51 499.269 214.627 500.384C213.775 501.462 214.74 503.08 216.092 502.836C216.81 502.707 217.346 502.062 217.347 501.333Z" stroke="#9E9E9E" stroke-width="0.651647" stroke-miterlimit="10" stroke-linecap="round" stroke-linejoin="round"/>
</svg>
