<svg width="64" height="52" viewBox="0 0 64 52" fill="none" xmlns="http://www.w3.org/2000/svg">
<path d="M6.156 51.5C4.54367 51.5 3.1985 50.939 2.1205 49.817C1.0425 48.695 0.502333 47.2937 0.5 45.6131V6.38686C0.5 4.70871 1.04017 3.30864 2.1205 2.18664C3.20083 1.06464 4.54483 0.502429 6.1525 0.5H57.8475C59.4575 0.5 60.8015 1.06221 61.8795 2.18664C62.9575 3.31107 63.4977 4.71114 63.5 6.38686V45.6168C63.5 47.2925 62.9598 48.6926 61.8795 49.817C60.7992 50.9414 59.4552 51.5024 57.8475 51.5H6.156ZM6.156 47.8571H57.8475C58.3842 47.8571 58.8777 47.624 59.328 47.1577C59.7783 46.6914 60.0023 46.1766 60 45.6131V11.4286H4V45.6168C4 46.1754 4.224 46.689 4.672 47.1577C5.12 47.6264 5.6135 47.8596 6.1525 47.8571" fill="#0A0A0A"/>
<path d="M6.156 47.8571H57.8475C58.3842 47.8571 58.8777 47.624 59.328 47.1577C59.7783 46.6914 60.0023 46.1766 60 45.6131V11.4286H4V45.6168C4 46.1754 4.224 46.689 4.672 47.1577C5.12 47.6264 5.6135 47.8596 6.1525 47.8571M6.156 51.5C4.54367 51.5 3.1985 50.939 2.1205 49.817C1.0425 48.695 0.502333 47.2937 0.5 45.6131V6.38686C0.5 4.70871 1.04017 3.30864 2.1205 2.18664C3.20083 1.06464 4.54483 0.502429 6.1525 0.5H57.8475C59.4575 0.5 60.8015 1.06221 61.8795 2.18664C62.9575 3.31107 63.4977 4.71114 63.5 6.38686V45.6168C63.5 47.2925 62.9598 48.6926 61.8795 49.817C60.7992 50.9414 59.4552 51.5024 57.8475 51.5H6.156Z" stroke="#FF4601" stroke-miterlimit="16"/>
<rect x="3.5" y="10.5" width="57" height="39" fill="#0A0A0A"/>
<path d="M35.125 19.8202V13.9297C35.125 13.5132 35.2615 13.1708 35.5345 12.9025C35.8075 12.6342 36.1458 12.5 36.5495 12.5H45.0895C45.4943 12.5 45.8303 12.6342 46.0975 12.9025C46.3647 13.1708 46.4988 13.5132 46.5 13.9297V19.8202C46.5 20.2379 46.3635 20.5803 46.0905 20.8475C45.8175 21.1158 45.4792 21.25 45.0755 21.25H36.5355C36.1318 21.25 35.7958 21.1158 35.5275 20.8475C35.2592 20.5792 35.125 20.2367 35.125 19.8202ZM18.5 25.1V13.9C18.5 13.5033 18.6365 13.1708 18.9095 12.9025C19.1825 12.6342 19.5208 12.5 19.9245 12.5H28.4645C28.8693 12.5 29.2053 12.6342 29.4725 12.9025C29.7397 13.1708 29.8738 13.5033 29.875 13.9V25.1C29.875 25.4967 29.7385 25.8292 29.4655 26.0975C29.1925 26.3658 28.8542 26.5 28.4505 26.5H19.9105C19.5068 26.5 19.1708 26.3658 18.9025 26.0975C18.6342 25.8292 18.5 25.4967 18.5 25.1ZM35.125 39.1V27.9C35.125 27.5033 35.2615 27.1708 35.5345 26.9025C35.8075 26.6342 36.1458 26.5 36.5495 26.5H45.0895C45.4943 26.5 45.8303 26.6342 46.0975 26.9025C46.3647 27.1708 46.4988 27.5033 46.5 27.9V39.1C46.5 39.4967 46.3635 39.8292 46.0905 40.0975C45.8175 40.3658 45.4792 40.5 45.0755 40.5H36.5355C36.1318 40.5 35.7958 40.3658 35.5275 40.0975C35.2592 39.8292 35.125 39.4967 35.125 39.1ZM18.5 39.0703V33.1798C18.5 32.7633 18.6365 32.4208 18.9095 32.1525C19.1825 31.8842 19.5208 31.75 19.9245 31.75H28.4645C28.8693 31.75 29.2053 31.8842 29.4725 32.1525C29.7397 32.4208 29.8738 32.7633 29.875 33.1798V39.0703C29.875 39.4879 29.7385 39.8303 29.4655 40.0975C29.1925 40.3658 28.8542 40.5 28.4505 40.5H19.9105C19.5068 40.5 19.1708 40.3658 18.9025 40.0975C18.6342 39.8292 18.5 39.4868 18.5 39.0703ZM20.25 24.75H28.125V14.25H20.25V24.75ZM36.875 38.75H44.75V28.25H36.875V38.75ZM36.875 19.5H44.75V14.25H36.875V19.5ZM20.25 38.75H28.125V33.5H20.25V38.75Z" fill="white"/>
</svg>
