<svg width="64" height="52" viewBox="0 0 64 52" fill="none" xmlns="http://www.w3.org/2000/svg">
<path d="M6.156 51.5C4.54367 51.5 3.1985 50.939 2.1205 49.817C1.0425 48.695 0.502333 47.2937 0.5 45.6131V6.38686C0.5 4.70871 1.04017 3.30864 2.1205 2.18664C3.20083 1.06464 4.54483 0.502429 6.1525 0.5H57.8475C59.4575 0.5 60.8015 1.06221 61.8795 2.18664C62.9575 3.31107 63.4977 4.71114 63.5 6.38686V45.6168C63.5 47.2925 62.9598 48.6926 61.8795 49.817C60.7992 50.9414 59.4552 51.5024 57.8475 51.5H6.156ZM6.156 47.8571H57.8475C58.3842 47.8571 58.8777 47.624 59.328 47.1577C59.7783 46.6914 60.0023 46.1766 60 45.6131V11.4286H4V45.6168C4 46.1754 4.224 46.689 4.672 47.1577C5.12 47.6264 5.6135 47.8596 6.1525 47.8571" fill="#0A0A0A"/>
<path d="M6.156 47.8571H57.8475C58.3842 47.8571 58.8777 47.624 59.328 47.1577C59.7783 46.6914 60.0023 46.1766 60 45.6131V11.4286H4V45.6168C4 46.1754 4.224 46.689 4.672 47.1577C5.12 47.6264 5.6135 47.8596 6.1525 47.8571M6.156 51.5C4.54367 51.5 3.1985 50.939 2.1205 49.817C1.0425 48.695 0.502333 47.2937 0.5 45.6131V6.38686C0.5 4.70871 1.04017 3.30864 2.1205 2.18664C3.20083 1.06464 4.54483 0.502429 6.1525 0.5H57.8475C59.4575 0.5 60.8015 1.06221 61.8795 2.18664C62.9575 3.31107 63.4977 4.71114 63.5 6.38686V45.6168C63.5 47.2925 62.9598 48.6926 61.8795 49.817C60.7992 50.9414 59.4552 51.5024 57.8475 51.5H6.156Z" stroke="#FF4601" stroke-miterlimit="16"/>
<rect x="3.5" y="10.5" width="57" height="39" fill="#0A0A0A"/>
<path d="M37.0165 12.1869C37.0578 12.0103 37.0641 11.827 37.035 11.6478C37.0059 11.4687 36.9421 11.2972 36.8472 11.1433C36.7522 10.9894 36.6281 10.8561 36.4821 10.7513C36.336 10.6465 36.1709 10.5722 35.9963 10.5328C35.8217 10.4933 35.6411 10.4894 35.4651 10.5214C35.289 10.5534 35.121 10.6206 34.9707 10.7191C34.8204 10.8175 34.6909 10.9453 34.5897 11.0951C34.4885 11.2448 34.4176 11.4134 34.3811 11.5912L27.9799 40.8308C27.9414 41.0065 27.9373 41.1883 27.968 41.3657C27.9987 41.5431 28.0634 41.7126 28.1586 41.8646C28.2538 42.0165 28.3776 42.148 28.5228 42.2514C28.668 42.3548 28.8319 42.4281 29.0051 42.4673C29.1782 42.5064 29.3573 42.5105 29.532 42.4794C29.7067 42.4482 29.8737 42.3825 30.0234 42.2858C30.1731 42.1892 30.3026 42.0635 30.4044 41.9161C30.5063 41.7687 30.5785 41.6023 30.6171 41.4265L37.0165 12.1869ZM24.0052 18.2304C24.2581 18.4874 24.4001 18.8357 24.4001 19.199C24.4001 19.5622 24.2581 19.9105 24.0052 20.1675L17.7588 26.5088L24.0052 32.8502C24.1341 32.9767 24.2369 33.128 24.3076 33.2952C24.3783 33.4625 24.4154 33.6423 24.4169 33.8243C24.4184 34.0063 24.3841 34.1868 24.3162 34.3552C24.2482 34.5236 24.1479 34.6766 24.0211 34.8052C23.8942 34.9338 23.7435 35.0355 23.5775 35.1044C23.4115 35.1732 23.2338 35.2078 23.0545 35.2061C22.8752 35.2045 22.6981 35.1666 22.5334 35.0947C22.3687 35.0228 22.2198 34.9183 22.0953 34.7873L14.8948 27.4774C14.642 27.2204 14.5 26.8721 14.5 26.5088C14.5 26.1456 14.642 25.7973 14.8948 25.5403L22.0953 18.2304C22.3485 17.9737 22.6916 17.8296 23.0494 17.8296C23.4072 17.8296 23.7503 17.9737 24.0034 18.2304M40.9966 18.2304C40.7437 18.4874 40.6017 18.8357 40.6017 19.199C40.6017 19.5622 40.7437 19.9105 40.9966 20.1675L47.243 26.5088L40.9966 32.8502C40.8639 32.9757 40.7575 33.127 40.6837 33.2951C40.6099 33.4632 40.5703 33.6447 40.5671 33.8287C40.5639 34.0128 40.5972 34.1956 40.6651 34.3662C40.733 34.5369 40.8341 34.6919 40.9623 34.8221C41.0905 34.9522 41.2432 35.0548 41.4113 35.1238C41.5794 35.1927 41.7595 35.2266 41.9408 35.2233C42.122 35.2201 42.3008 35.1798 42.4664 35.1049C42.632 35.03 42.7811 34.922 42.9047 34.7873L50.1052 27.4774C50.358 27.2204 50.5 26.8721 50.5 26.5088C50.5 26.1456 50.358 25.7973 50.1052 25.5403L42.9047 18.2304C42.6515 17.9737 42.3084 17.8296 41.9506 17.8296C41.5928 17.8296 41.2497 17.9737 40.9966 18.2304Z" fill="white"/>
</svg>
