<svg width="64" height="52" viewBox="0 0 64 52" fill="none" xmlns="http://www.w3.org/2000/svg">
<path d="M6.156 51.5C4.54367 51.5 3.1985 50.939 2.1205 49.817C1.0425 48.695 0.502333 47.2937 0.5 45.6131V6.38686C0.5 4.70871 1.04017 3.30864 2.1205 2.18664C3.20083 1.06464 4.54483 0.502429 6.1525 0.5H57.8475C59.4575 0.5 60.8015 1.06221 61.8795 2.18664C62.9575 3.31107 63.4977 4.71114 63.5 6.38686V45.6168C63.5 47.2925 62.9598 48.6926 61.8795 49.817C60.7992 50.9414 59.4552 51.5024 57.8475 51.5H6.156ZM6.156 47.8571H57.8475C58.3842 47.8571 58.8777 47.624 59.328 47.1577C59.7783 46.6914 60.0023 46.1766 60 45.6131V11.4286H4V45.6168C4 46.1754 4.224 46.689 4.672 47.1577C5.12 47.6264 5.6135 47.8596 6.1525 47.8571" fill="#0A0A0A"/>
<path d="M6.156 47.8571H57.8475C58.3842 47.8571 58.8777 47.624 59.328 47.1577C59.7783 46.6914 60.0023 46.1766 60 45.6131V11.4286H4V45.6168C4 46.1754 4.224 46.689 4.672 47.1577C5.12 47.6264 5.6135 47.8596 6.1525 47.8571M6.156 51.5C4.54367 51.5 3.1985 50.939 2.1205 49.817C1.0425 48.695 0.502333 47.2937 0.5 45.6131V6.38686C0.5 4.70871 1.04017 3.30864 2.1205 2.18664C3.20083 1.06464 4.54483 0.502429 6.1525 0.5H57.8475C59.4575 0.5 60.8015 1.06221 61.8795 2.18664C62.9575 3.31107 63.4977 4.71114 63.5 6.38686V45.6168C63.5 47.2925 62.9598 48.6926 61.8795 49.817C60.7992 50.9414 59.4552 51.5024 57.8475 51.5H6.156Z" stroke="#FF4601" stroke-miterlimit="16"/>
<rect x="3.5" y="10.5" width="57" height="39" fill="#0A0A0A"/>
<path d="M40.9662 15.8919C40.9662 14.4619 40.3981 13.0904 39.387 12.0792C38.3758 11.0681 37.0043 10.5 35.5743 10.5H23.8919C22.4619 10.5 21.0904 11.0681 20.0792 12.0792C19.0681 13.0904 18.5 14.4619 18.5 15.8919V32.9662C18.5 34.3962 19.0681 35.7677 20.0792 36.7789C21.0904 37.79 22.4619 38.3581 23.8919 38.3581H35.5743C37.0043 38.3581 38.3758 37.79 39.387 36.7789C40.3981 35.7677 40.9662 34.3962 40.9662 32.9662V15.8919Z" stroke="white" stroke-width="1.5" stroke-linecap="round" stroke-linejoin="round"/>
<path d="M46.3581 17.6892V32.9662C46.3581 35.8263 45.222 38.5692 43.1996 40.5915C41.1773 42.6139 38.4344 43.75 35.5743 43.75H25.6892" stroke="white" stroke-width="1.5" stroke-linecap="round" stroke-linejoin="round"/>
</svg>
