<svg width="175" height="29" viewBox="0 0 175 29" fill="none" xmlns="http://www.w3.org/2000/svg">
<path d="M57.407 20.1904L53.4375 5.23166H56.5714L58.6188 13.6303L58.8695 15.1972H59.0366L59.3709 13.6303L62.0033 5.23166H64.7819L67.3517 13.6303L67.6859 15.1554H67.8531L68.1038 13.6303L70.1303 5.23166H73.2641L69.3991 20.1904H66.3697L63.8209 11.165L63.4866 9.55632H63.3195L62.9852 11.165L60.311 20.1904H57.407ZM79.1826 20.5247C78.1102 20.5247 77.1491 20.2809 76.2995 19.7934C75.4638 19.306 74.8023 18.6374 74.3148 17.7878C73.8412 16.9382 73.6044 15.9702 73.6044 14.8838C73.6044 13.8671 73.8412 12.9269 74.3148 12.0634C74.7883 11.1998 75.436 10.5104 76.2577 9.99505C77.0795 9.46579 78.0196 9.20116 79.0782 9.20116C80.2203 9.20116 81.1813 9.4449 81.9613 9.93238C82.7412 10.4199 83.3332 11.0745 83.7371 11.8962C84.141 12.7041 84.343 13.6024 84.343 14.5913C84.343 14.8142 84.336 15.0092 84.3221 15.1763C84.3082 15.3295 84.2942 15.4409 84.2803 15.5106H75.1296V13.5676H81.7106C81.6966 13.3308 81.627 13.0871 81.5016 12.8364C81.3763 12.5857 81.2022 12.3559 80.9793 12.1469C80.7565 11.938 80.4849 11.7709 80.1646 11.6455C79.8581 11.5062 79.503 11.4366 79.0991 11.4366C78.5698 11.4366 78.0823 11.5759 77.6366 11.8545C77.2048 12.133 76.8636 12.523 76.6129 13.0244C76.3622 13.5119 76.2368 14.0969 76.2368 14.7793C76.2368 15.4897 76.3692 16.0955 76.6338 16.597C76.8984 17.0844 77.2536 17.4605 77.6993 17.7251C78.1589 17.9758 78.6673 18.1012 79.2244 18.1012C79.879 18.1012 80.4292 17.9619 80.8749 17.6833C81.3206 17.3909 81.6688 17.0287 81.9195 16.597L84.1341 17.6833C83.6326 18.5608 82.978 19.2572 82.1702 19.7726C81.3624 20.274 80.3665 20.5247 79.1826 20.5247ZM86.7661 20.1904V5.23166H91.822C93.4098 5.23166 94.7748 5.552 95.9169 6.1927C97.0729 6.81946 97.9573 7.69693 98.5702 8.8251C99.1969 9.93934 99.5103 11.2347 99.5103 12.711C99.5103 14.1874 99.1969 15.4897 98.5702 16.6178C97.9573 17.746 97.0729 18.6235 95.9169 19.2502C94.7748 19.877 93.4098 20.1904 91.822 20.1904H86.7661ZM89.5866 17.5162H91.6967C92.797 17.5162 93.7162 17.3212 94.4544 16.9312C95.1926 16.5273 95.7428 15.9632 96.1049 15.239C96.4809 14.5147 96.669 13.6721 96.669 12.711C96.669 11.7361 96.4809 10.8934 96.1049 10.1831C95.7428 9.45882 95.1926 8.9017 94.4544 8.51172C93.7162 8.1078 92.797 7.90585 91.6967 7.90585H89.5866V17.5162ZM106.871 20.5247C105.757 20.5247 104.768 20.2809 103.904 19.7934C103.055 19.292 102.386 18.6165 101.899 17.7669C101.425 16.9034 101.189 15.9354 101.189 14.8629C101.189 13.7905 101.425 12.8294 101.899 11.9798C102.386 11.1163 103.055 10.4408 103.904 9.95327C104.768 9.45186 105.757 9.20116 106.871 9.20116C107.985 9.20116 108.967 9.45186 109.817 9.95327C110.667 10.4547 111.328 11.1302 111.802 11.9798C112.289 12.8294 112.533 13.7905 112.533 14.8629C112.533 15.9354 112.289 16.9034 111.802 17.7669C111.328 18.6165 110.667 19.292 109.817 19.7934C108.967 20.2809 107.985 20.5247 106.871 20.5247ZM106.871 17.9758C107.4 17.9758 107.881 17.8574 108.313 17.6207C108.758 17.37 109.114 17.0148 109.378 16.5552C109.657 16.0816 109.796 15.5175 109.796 14.8629C109.796 14.2083 109.657 13.6512 109.378 13.1915C109.114 12.7319 108.758 12.3768 108.313 12.126C107.881 11.8753 107.407 11.75 106.892 11.75C106.363 11.75 105.868 11.8753 105.409 12.126C104.963 12.3768 104.601 12.7319 104.322 13.1915C104.058 13.6512 103.925 14.2083 103.925 14.8629C103.925 15.5175 104.058 16.0816 104.322 16.5552C104.601 17.0148 104.963 17.37 105.409 17.6207C105.868 17.8574 106.356 17.9758 106.871 17.9758ZM114.962 20.1904V5.23166H117.783V17.5162H124.113V20.1904H114.962ZM130.905 20.5247C129.791 20.5247 128.802 20.2809 127.939 19.7934C127.089 19.292 126.42 18.6165 125.933 17.7669C125.459 16.9034 125.223 15.9354 125.223 14.8629C125.223 13.7905 125.459 12.8294 125.933 11.9798C126.42 11.1163 127.089 10.4408 127.939 9.95327C128.802 9.45186 129.791 9.20116 130.905 9.20116C132.019 9.20116 133.001 9.45186 133.851 9.95327C134.701 10.4547 135.362 11.1302 135.836 11.9798C136.323 12.8294 136.567 13.7905 136.567 14.8629C136.567 15.9354 136.323 16.9034 135.836 17.7669C135.362 18.6165 134.701 19.292 133.851 19.7934C133.001 20.2809 132.019 20.5247 130.905 20.5247ZM130.905 17.9758C131.434 17.9758 131.915 17.8574 132.347 17.6207C132.792 17.37 133.148 17.0148 133.412 16.5552C133.691 16.0816 133.83 15.5175 133.83 14.8629C133.83 14.2083 133.691 13.6512 133.412 13.1915C133.148 12.7319 132.792 12.3768 132.347 12.126C131.915 11.8753 131.441 11.75 130.926 11.75C130.397 11.75 129.902 11.8753 129.443 12.126C128.997 12.3768 128.635 12.7319 128.356 13.1915C128.092 13.6512 127.959 14.2083 127.959 14.8629C127.959 15.5175 128.092 16.0816 128.356 16.5552C128.635 17.0148 128.997 17.37 129.443 17.6207C129.902 17.8574 130.39 17.9758 130.905 17.9758ZM143.53 25.0374C142.569 25.0374 141.733 24.8841 141.023 24.5777C140.326 24.2852 139.755 23.9022 139.31 23.4287C138.864 22.9551 138.551 22.4607 138.37 21.9453L140.939 20.9007C141.162 21.4161 141.496 21.8269 141.942 22.1334C142.402 22.4537 142.931 22.6139 143.53 22.6139C144.38 22.6139 145.062 22.3492 145.577 21.82C146.093 21.3046 146.35 20.5525 146.35 19.5636V18.7279H146.183C145.849 19.2015 145.41 19.5636 144.867 19.8143C144.324 20.065 143.704 20.1904 143.008 20.1904C142.144 20.1904 141.329 19.9675 140.563 19.5218C139.811 19.0761 139.198 18.4424 138.725 17.6207C138.265 16.7989 138.035 15.8239 138.035 14.6958C138.035 13.5537 138.265 12.5787 138.725 11.7709C139.198 10.9491 139.811 10.3154 140.563 9.8697C141.329 9.424 142.144 9.20116 143.008 9.20116C143.704 9.20116 144.324 9.32651 144.867 9.57721C145.41 9.81399 145.849 10.1761 146.183 10.6636H146.35V9.53543H148.983V19.4592C148.983 20.6013 148.76 21.5902 148.314 22.4258C147.869 23.2615 147.235 23.9022 146.413 24.3479C145.605 24.8075 144.644 25.0374 143.53 25.0374ZM143.572 17.7042C144.059 17.7042 144.512 17.5928 144.93 17.37C145.361 17.1332 145.703 16.7919 145.953 16.3462C146.218 15.8866 146.35 15.3365 146.35 14.6958C146.35 14.0272 146.218 13.4701 145.953 13.0244C145.703 12.5787 145.361 12.2444 144.93 12.0216C144.512 11.7987 144.059 11.6873 143.572 11.6873C143.084 11.6873 142.625 11.7987 142.193 12.0216C141.761 12.2444 141.413 12.5787 141.148 13.0244C140.898 13.4701 140.772 14.0272 140.772 14.6958C140.772 15.3504 140.898 15.9075 141.148 16.3671C141.413 16.8128 141.761 17.1471 142.193 17.37C142.625 17.5928 143.084 17.7042 143.572 17.7042ZM156.714 20.5247C155.6 20.5247 154.611 20.2809 153.748 19.7934C152.898 19.292 152.229 18.6165 151.742 17.7669C151.268 16.9034 151.032 15.9354 151.032 14.8629C151.032 13.7905 151.268 12.8294 151.742 11.9798C152.229 11.1163 152.898 10.4408 153.748 9.95327C154.611 9.45186 155.6 9.20116 156.714 9.20116C157.829 9.20116 158.81 9.45186 159.66 9.95327C160.51 10.4547 161.171 11.1302 161.645 11.9798C162.132 12.8294 162.376 13.7905 162.376 14.8629C162.376 15.9354 162.132 16.9034 161.645 17.7669C161.171 18.6165 160.51 19.292 159.66 19.7934C158.81 20.2809 157.829 20.5247 156.714 20.5247ZM156.714 17.9758C157.244 17.9758 157.724 17.8574 158.156 17.6207C158.602 17.37 158.957 17.0148 159.221 16.5552C159.5 16.0816 159.639 15.5175 159.639 14.8629C159.639 14.2083 159.5 13.6512 159.221 13.1915C158.957 12.7319 158.602 12.3768 158.156 12.126C157.724 11.8753 157.251 11.75 156.735 11.75C156.206 11.75 155.711 11.8753 155.252 12.126C154.806 12.3768 154.444 12.7319 154.165 13.1915C153.901 13.6512 153.769 14.2083 153.769 14.8629C153.769 15.5175 153.901 16.0816 154.165 16.5552C154.444 17.0148 154.806 17.37 155.252 17.6207C155.711 17.8574 156.199 17.9758 156.714 17.9758ZM168.482 20.5247C167.563 20.5247 166.776 20.3924 166.122 20.1277C165.481 19.8631 164.959 19.5149 164.555 19.0831C164.151 18.6513 163.851 18.1778 163.656 17.6625L166.101 16.597C166.338 17.0984 166.658 17.4814 167.062 17.746C167.466 17.9967 167.939 18.1221 168.482 18.1221C168.928 18.1221 169.332 18.0524 169.694 17.9132C170.056 17.7599 170.237 17.4884 170.237 17.0984C170.237 16.8198 170.14 16.6039 169.945 16.4507C169.764 16.2836 169.534 16.1582 169.255 16.0747C168.977 15.9772 168.691 15.9006 168.399 15.8448L167.145 15.5732C166.63 15.4618 166.143 15.2668 165.683 14.9883C165.223 14.6958 164.847 14.3336 164.555 13.9019C164.276 13.4562 164.137 12.9478 164.137 12.3768C164.137 11.7361 164.318 11.1789 164.68 10.7054C165.056 10.2318 165.558 9.86274 166.184 9.59811C166.825 9.33347 167.528 9.20116 168.294 9.20116C169.005 9.20116 169.645 9.28472 170.216 9.45186C170.788 9.619 171.282 9.87667 171.7 10.2249C172.118 10.5591 172.452 10.9909 172.703 11.5202L170.363 12.5439C170.14 12.126 169.847 11.8336 169.485 11.6664C169.137 11.4993 168.761 11.4157 168.357 11.4157C167.884 11.4157 167.507 11.5062 167.229 11.6873C166.95 11.8684 166.811 12.0843 166.811 12.335C166.811 12.5996 166.95 12.8294 167.229 13.0244C167.507 13.2194 167.842 13.3656 168.232 13.4631L169.799 13.8392C170.857 14.0899 171.651 14.4938 172.18 15.0509C172.724 15.6081 172.995 16.2766 172.995 17.0566C172.995 17.753 172.793 18.3658 172.389 18.8951C171.985 19.4104 171.442 19.8143 170.76 20.1068C170.077 20.3854 169.318 20.5247 168.482 20.5247Z" fill="white"/>
<path d="M13.3741 9.83623L7.04076 18.5446L1.10326 9.83623L7.04076 1.52373L13.3741 9.83623ZM13.3741 9.83623L19.7074 1.52373L26.0408 9.83623L32.3741 1.52373L39.1033 9.83623L26.8324 26.8571L13.3741 9.83623Z" stroke="#FF4601" stroke-width="1.80952"/>
</svg>
